<svg width="342" height="200" viewBox="0 0 342 200" fill="none" xmlns="http://www.w3.org/2000/svg">
<g clip-path="url(#clip0_7425_104655)">
<path fill-rule="evenodd" clip-rule="evenodd" d="M-247.27 -120.169C-247.271 -120.17 -247.272 -120.172 -246.761 -120.402C-246.251 -120.633 -246.25 -120.632 -246.249 -120.63L-246.243 -120.623L-246.22 -120.594C-246.199 -120.568 -246.167 -120.529 -246.124 -120.477C-246.039 -120.372 -245.912 -120.217 -245.742 -120.011C-245.401 -119.599 -244.891 -118.988 -244.213 -118.19C-242.856 -116.594 -240.826 -114.252 -238.136 -111.271C-232.756 -105.308 -224.736 -96.7868 -214.179 -86.5603C-193.066 -66.1073 -161.811 -38.8369 -121.248 -11.5669C-40.1154 42.9766 78.2093 97.4861 227.081 97.4861V98.3791C77.8046 98.3791 -40.7925 43.7213 -122.044 -10.9026C-162.673 -38.2163 -193.976 -65.5291 -215.122 -86.0142C-225.696 -96.2568 -233.731 -104.793 -239.124 -110.77C-241.82 -113.759 -243.856 -116.108 -245.218 -117.71C-245.899 -118.511 -246.412 -119.126 -246.755 -119.541C-246.926 -119.748 -247.055 -119.905 -247.142 -120.011C-247.185 -120.064 -247.217 -120.104 -247.239 -120.131L-247.263 -120.161L-247.27 -120.169ZM-247.213 -54.4762C-247.214 -54.4775 -247.215 -54.478 -246.761 -54.7678C-246.308 -55.0571 -246.307 -55.0566 -246.306 -55.0557L-246.3 -55.0508L-246.277 -55.0303L-246.236 -54.9941L-246.182 -54.9477C-246.146 -54.916 -246.102 -54.878 -246.05 -54.8334L-245.967 -54.762C-245.917 -54.7186 -245.861 -54.6709 -245.8 -54.6186C-245.46 -54.328 -244.95 -53.8958 -244.273 -53.3314C-242.917 -52.2031 -240.888 -50.5466 -238.199 -48.4378C-232.821 -44.2203 -224.803 -38.1926 -214.248 -30.9585C-193.14 -16.49 -161.888 2.80431 -121.327 22.0986C-40.2025 60.6876 78.1485 99.2721 227.081 99.2721V100.165C77.8647 100.165 -40.7055 61.5064 -121.966 22.8523C-162.596 3.52539 -193.902 -15.8024 -215.053 -30.3C-225.629 -37.5488 -233.666 -43.5903 -239.061 -47.8212C-241.758 -49.9367 -243.795 -51.5994 -245.159 -52.734C-245.84 -53.3015 -246.354 -53.7368 -246.697 -54.0306C-246.869 -54.1775 -246.998 -54.2891 -247.084 -54.3641C-247.127 -54.4016 -247.16 -54.4298 -247.182 -54.449L-247.207 -54.4704L-247.213 -54.4762ZM-246.761 -9.22553C-247.145 -8.88397 -247.144 -8.88308 -247.143 -8.88219L-247.136 -8.87817L-247.112 -8.86253L-247.047 -8.82235L-247.014 -8.80181C-246.927 -8.74779 -246.798 -8.66787 -246.626 -8.56249C-246.282 -8.35175 -245.769 -8.03966 -245.087 -7.63245C-243.723 -6.81895 -241.685 -5.62681 -238.988 -4.11052C-233.592 -1.0775 -225.554 3.25348 -214.978 8.44931C-193.826 18.8414 -162.52 32.6943 -121.893 46.5458C-40.6382 74.2498 77.9065 101.951 227.081 101.951V101.058C78.1068 101.058 -40.2698 73.3943 -121.399 45.7332C-161.964 31.9027 -193.216 18.0726 -214.324 7.70277C-224.878 2.51766 -232.895 -1.80215 -238.272 -4.82446C-240.961 -6.33584 -242.989 -7.52261 -244.344 -8.33121C-245.022 -8.73528 -245.531 -9.04515 -245.871 -9.25322C-245.944 -9.29787 -246.009 -9.33805 -246.066 -9.37332C-246.142 -9.4202 -246.204 -9.4586 -246.252 -9.48897C-246.295 -9.51486 -246.326 -9.53496 -246.347 -9.5479L-246.37 -9.56264L-246.376 -9.56621C-246.376 -9.56621 -246.377 -9.56666 -246.389 -9.55639C-246.394 -9.55148 -246.402 -9.54433 -246.414 -9.53362C-246.437 -9.51397 -246.472 -9.48271 -246.529 -9.43226L-246.761 -9.22553ZM-247.016 40.7387C-247.016 40.7387 -247.017 40.7388 -247.016 40.7379C-247.016 40.737 -247.015 40.7352 -247.013 40.7312C-247.008 40.7236 -246.999 40.7084 -246.979 40.6771C-246.945 40.6236 -246.882 40.5231 -246.761 40.3351C-246.645 40.153 -246.581 40.0534 -246.546 39.9989C-246.53 39.9735 -246.52 39.9578 -246.513 39.948C-246.507 39.9386 -246.505 39.9351 -246.504 39.9337C-246.503 39.9328 -246.503 39.9328 -246.503 39.9328L-246.497 39.9351L-246.474 39.9435L-246.379 39.977C-246.294 40.0069 -246.167 40.0516 -245.997 40.111C-245.657 40.2293 -245.148 40.4057 -244.47 40.6356C-243.114 41.095 -241.085 41.7701 -238.396 42.6296C-233.018 44.3486 -224.998 46.8052 -214.443 49.7534C-193.331 55.6507 -162.071 63.5152 -121.497 71.3806C-40.3473 87.111 78.0627 102.844 227.081 102.844V103.737C77.9506 103.737 -40.5607 87.9924 -121.795 72.245C-162.413 64.3716 -193.711 56.4972 -214.859 50.5901C-225.433 47.6366 -233.469 45.1751 -238.864 43.4512C-241.561 42.589 -243.598 41.9112 -244.961 41.4491C-245.643 41.2178 -246.157 41.0401 -246.5 40.9205C-246.672 40.8606 -246.801 40.8151 -246.887 40.7847L-246.985 40.7499L-247.01 40.741L-247.016 40.7387ZM-246.761 80.0729C-246.842 80.3922 -246.864 80.4792 -246.869 80.5029C-246.871 80.5118 -246.871 80.5118 -246.871 80.5118L-246.864 80.5127L-246.84 80.5163L-246.743 80.5301C-246.657 80.5422 -246.528 80.5601 -246.357 80.5837L-246.196 80.606L-245.999 80.6333C-245.89 80.648 -245.77 80.6646 -245.641 80.682C-245.402 80.7146 -245.129 80.7516 -244.821 80.7931C-243.46 80.9766 -241.425 81.2454 -238.729 81.5874C-233.339 82.2719 -225.307 83.2488 -214.738 84.4213C-193.6 86.7663 -162.312 89.8926 -121.707 93.019C-40.4963 99.2712 77.9846 105.523 227.081 105.523V104.63C78.0287 104.63 -40.4111 98.38 -121.585 92.1305C-162.172 89.0059 -193.442 85.8813 -214.563 83.5382C-225.124 82.3666 -233.148 81.3905 -238.53 80.707C-241.222 80.3654 -243.252 80.097 -244.61 79.9144C-245.289 79.8229 -245.799 79.7528 -246.14 79.7055C-246.31 79.6823 -246.438 79.6644 -246.523 79.6523L-246.619 79.639L-246.643 79.6354L-246.648 79.6345C-246.648 79.6345 -246.649 79.6345 -246.651 79.643C-246.654 79.6514 -246.658 79.6675 -246.666 79.6992L-246.684 79.7698C-246.701 79.8345 -246.725 79.931 -246.761 80.0729ZM-246.755 104.184C-246.756 104.184 -246.757 104.184 -246.761 104.63C-246.766 105.077 -246.765 105.077 -246.764 105.077H-246.758H-246.748L-246.734 105.077H-246.716H-246.694H-246.668L-246.637 105.077H-246.603L-246.565 105.078H-246.523L-246.477 105.078H-246.427L-246.373 105.079L-246.315 105.079L-246.253 105.08H-246.187L-246.117 105.08L-246.043 105.081L-245.965 105.081L-245.883 105.081L-245.797 105.082L-245.707 105.083L-245.613 105.083L-245.516 105.084L-245.414 105.084L-245.308 105.085L-245.198 105.085L-245.085 105.086L-244.967 105.087L-244.846 105.087L-244.72 105.088L-244.591 105.089L-244.457 105.089L-244.32 105.09L-244.179 105.091L-244.033 105.092L-243.884 105.093L-243.731 105.094L-243.574 105.095L-243.413 105.096L-243.249 105.097L-243.08 105.097L-242.907 105.098L-242.731 105.099L-242.55 105.1L-242.366 105.102L-242.177 105.102L-241.985 105.104L-241.789 105.105L-241.589 105.106L-241.385 105.107L-241.177 105.108L-240.965 105.11L-240.75 105.11L-240.53 105.112L-240.307 105.113L-240.08 105.114L-239.848 105.116L-239.613 105.117L-239.374 105.118L-239.132 105.12L-238.885 105.121L-238.634 105.122L-238.38 105.124L-238.122 105.126L-237.859 105.127L-237.593 105.128L-237.324 105.13L-237.05 105.131L-236.772 105.133L-236.491 105.135L-236.206 105.136L-235.916 105.138L-235.623 105.139L-235.327 105.141L-235.026 105.143L-234.721 105.145L-234.413 105.147L-234.101 105.148L-233.785 105.15L-233.465 105.152L-233.141 105.154L-232.814 105.156L-232.483 105.157L-232.147 105.159L-231.808 105.161L-231.466 105.163L-231.119 105.165L-230.769 105.167L-230.415 105.169L-230.057 105.171L-229.695 105.173L-229.329 105.175L-228.96 105.177L-228.587 105.179L-228.21 105.181L-227.829 105.184L-227.444 105.186L-227.056 105.188L-226.664 105.19L-226.268 105.193L-225.868 105.195L-225.465 105.197L-225.058 105.199L-224.647 105.202L-224.232 105.204L-223.813 105.206L-223.391 105.209L-222.965 105.211L-222.535 105.214L-222.102 105.216L-221.664 105.218L-221.223 105.221L-220.778 105.223L-220.33 105.226L-219.877 105.229L-219.421 105.231L-218.961 105.234L-218.498 105.236L-218.031 105.239L-217.56 105.242L-217.085 105.244L-216.606 105.247L-216.124 105.25L-215.638 105.252L-215.149 105.255L-214.655 105.258L-214.158 105.261L-213.657 105.264L-213.153 105.267L-212.645 105.269L-212.133 105.273L-211.617 105.275L-211.098 105.278L-210.575 105.281L-210.048 105.284L-209.517 105.287L-208.983 105.29L-208.446 105.293L-207.904 105.296L-207.359 105.299L-206.81 105.302L-206.257 105.306L-205.701 105.309L-205.141 105.312L-204.578 105.315L-204.01 105.319L-203.44 105.322L-202.865 105.325L-202.287 105.328L-201.705 105.331L-201.119 105.335L-200.53 105.338L-199.937 105.341L-199.341 105.345L-198.74 105.348L-198.136 105.352L-197.529 105.355L-196.918 105.358L-196.303 105.362L-195.685 105.365L-195.063 105.369L-194.437 105.373L-193.808 105.376L-193.175 105.38L-192.538 105.383L-191.898 105.387L-191.254 105.39L-190.607 105.394L-189.956 105.398L-189.301 105.402L-188.643 105.405L-187.981 105.409L-187.315 105.413L-186.647 105.416L-185.974 105.42L-185.297 105.424L-184.618 105.428L-183.934 105.432L-183.247 105.435L-182.556 105.439L-181.862 105.444L-181.164 105.448L-180.463 105.452L-179.758 105.456L-179.049 105.46L-178.337 105.464L-177.621 105.468L-176.902 105.472L-176.179 105.476L-175.453 105.48L-174.722 105.484L-173.989 105.488L-173.252 105.492L-172.511 105.496L-171.767 105.501L-171.019 105.505L-170.268 105.509L-169.513 105.513L-168.754 105.518L-167.993 105.522L-167.227 105.526L-166.458 105.531L-165.685 105.535L-164.909 105.54L-164.13 105.544L-163.347 105.548L-162.56 105.552L-161.77 105.557L-160.976 105.561L-160.179 105.566L-159.378 105.571L-158.574 105.575L-157.765 105.58L-156.954 105.584L-156.139 105.589L-155.321 105.594L-154.499 105.598L-153.674 105.603L-152.845 105.607L-152.013 105.612L-151.177 105.617L-150.338 105.622L-149.495 105.627L-148.649 105.632L-147.799 105.636L-146.945 105.641L-146.089 105.646L-145.229 105.651L-144.365 105.656L-143.498 105.661L-142.627 105.665L-141.753 105.67L-140.875 105.675L-139.994 105.68L-139.11 105.685L-138.222 105.69L-137.331 105.695L-136.435 105.7L-135.537 105.706L-134.635 105.711L-133.731 105.715L-132.822 105.721L-131.91 105.726L-130.994 105.731L-130.075 105.736L-129.153 105.741L-128.227 105.747L-127.298 105.752L-126.365 105.757L-125.429 105.763L-124.49 105.768L-123.547 105.773L-122.6 105.778L-121.65 105.784L-120.697 105.789L-119.741 105.795L-118.78 105.8L-117.817 105.806L-116.85 105.811L-115.88 105.816L-114.907 105.822L-113.93 105.828L-112.949 105.833L-111.965 105.839L-110.978 105.844L-109.988 105.85L-108.994 105.856L-107.996 105.861L-106.996 105.867L-105.992 105.873L-104.984 105.878L-103.974 105.884L-102.959 105.89L-101.942 105.895L-100.921 105.901L-99.8965 105.907L-98.8689 105.913L-97.8378 105.919L-96.8037 105.924L-95.766 105.93L-94.7247 105.936L-93.6805 105.942L-92.6327 105.948L-91.5819 105.954L-90.5275 105.96L-89.4695 105.966L-88.4086 105.972L-87.3441 105.978L-86.276 105.984L-85.205 105.99L-84.1309 105.996L-83.0527 106.002L-81.9721 106.008L-80.8873 106.015L-79.7996 106.02L-78.7088 106.027L-77.6145 106.033L-76.5167 106.039L-75.4158 106.045L-74.3113 106.052L-73.2039 106.058L-72.0929 106.064L-70.979 106.07L-69.8614 106.077L-68.7409 106.083L-67.6168 106.09L-66.4897 106.096L-65.359 106.102L-64.2248 106.109L-63.0875 106.115L-61.9473 106.121L-60.8036 106.128L-59.6568 106.134L-58.5065 106.141L-57.3526 106.148L-56.1963 106.154L-55.0358 106.161L-53.8724 106.167L-52.7059 106.174L-51.5359 106.18L-50.3629 106.187L-49.1864 106.194L-48.0068 106.2L-46.8243 106.207L-45.6382 106.214L-44.4485 106.22L-43.2559 106.227L-42.0603 106.234L-40.8611 106.241L-39.6589 106.248L-38.4537 106.254L-37.245 106.261L-36.0326 106.268L-34.8173 106.275L-33.5991 106.282L-32.3772 106.289L-31.1524 106.295L-29.9245 106.303L-28.6931 106.309L-27.4588 106.316L-26.2208 106.324L-24.9799 106.33L-23.736 106.337L-22.4885 106.345L-21.238 106.352L-19.9846 106.359L-18.7276 106.366L-17.4675 106.373L-16.204 106.38L-14.9374 106.387L-13.6679 106.395L-12.3954 106.402L-11.1193 106.409L-9.84018 106.416L-8.55753 106.423L-7.2719 106.431L-5.98328 106.438L-4.6917 106.445L-3.39651 106.453L-2.09839 106.46L-0.797241 106.467L0.507462 106.474L1.81514 106.482L3.12581 106.489L4.44005 106.497L5.75728 106.504L7.07748 106.512L8.40067 106.519L9.72742 106.527L11.0572 106.534L12.3899 106.542L13.7256 106.549L15.0648 106.557L16.4071 106.565L17.7523 106.572L19.1012 106.58L20.4524 106.587L21.8071 106.595L23.1649 106.603L24.5262 106.61L25.8899 106.618L27.2572 106.626L28.6275 106.633L30.0007 106.641L31.3775 106.649L32.7567 106.657L34.1395 106.665L35.5253 106.673L36.914 106.68L38.3064 106.688L39.7011 106.696L41.0994 106.704L42.5006 106.712L43.9049 106.72L45.3121 106.728L46.7223 106.736L48.1361 106.744L49.5528 106.752L50.9726 106.76L52.3953 106.768L53.821 106.776L55.2497 106.784L56.6813 106.792L58.1165 106.8L59.5548 106.808L60.996 106.816L62.4395 106.825L63.8873 106.833L65.3374 106.841L66.7905 106.85L68.2467 106.858L69.7063 106.866L71.1684 106.874L72.634 106.882L74.1026 106.891L75.5736 106.899L77.0482 106.907L78.5258 106.916L80.0063 106.924L81.4898 106.933L82.9763 106.941L84.4663 106.949L85.9588 106.958L87.4542 106.966L88.9532 106.975L90.4547 106.983L91.959 106.992L93.467 107L94.9773 107.008L96.4912 107.017L98.0081 107.026L99.5274 107.034L101.05 107.043L102.575 107.052L104.104 107.06L105.635 107.069L107.17 107.078L108.708 107.086L110.248 107.095L111.792 107.104L113.338 107.113L114.888 107.121L116.44 107.13L117.995 107.139L119.553 107.148L121.115 107.156L122.679 107.165L124.246 107.174L125.816 107.183L127.389 107.192L128.965 107.201L130.544 107.21L132.126 107.219L133.711 107.228L135.299 107.237L136.889 107.246L138.483 107.255L140.079 107.264L141.679 107.273L143.281 107.282L144.886 107.291L146.495 107.3L148.106 107.309L149.72 107.318L151.337 107.327L152.957 107.337L154.58 107.346L156.205 107.355L157.834 107.364L159.465 107.373L161.1 107.383L162.737 107.392L164.377 107.401L166.02 107.41L167.667 107.42L169.315 107.429L170.967 107.438L172.621 107.448L174.279 107.457L175.939 107.467L177.603 107.476L179.269 107.485L180.938 107.495L182.61 107.504L184.284 107.513L185.962 107.523L187.642 107.533L189.326 107.542L191.012 107.551L192.701 107.561L194.392 107.571L196.088 107.58L197.785 107.59L199.485 107.6L201.188 107.609L202.895 107.619L204.604 107.629L206.315 107.638L208.03 107.648L209.747 107.658L211.467 107.667L213.191 107.677L214.917 107.687L216.645 107.697L218.377 107.706L220.111 107.716L221.848 107.726L223.588 107.736L225.331 107.746L227.076 107.755L227.085 106.862L225.34 106.853L223.597 106.843L221.857 106.833L220.12 106.823L218.386 106.813L216.654 106.804L214.926 106.794L213.199 106.784L211.476 106.775L209.756 106.765L208.039 106.755L206.324 106.745L204.612 106.736L202.904 106.726L201.197 106.716L199.494 106.707L197.794 106.697L196.096 106.687L194.401 106.678L192.71 106.668L191.021 106.659L189.335 106.649L187.651 106.64L185.971 106.63L184.293 106.62L182.618 106.611L180.947 106.602L179.278 106.592L177.612 106.583L175.948 106.574L174.288 106.564L172.63 106.555L170.976 106.545L169.324 106.536L167.675 106.527L166.029 106.517L164.386 106.508L162.746 106.499L161.109 106.49L159.475 106.48L157.843 106.471L156.214 106.462L154.588 106.453L152.966 106.444L151.346 106.434L149.729 106.425L148.115 106.416L146.504 106.407L144.895 106.398L143.29 106.389L141.688 106.38L140.088 106.371L138.492 106.362L136.898 106.353L135.308 106.344L133.72 106.335L132.135 106.326L130.553 106.317L128.974 106.308L127.398 106.299L125.825 106.29L124.255 106.281L122.688 106.272L121.124 106.263L119.562 106.255L118.004 106.246L116.449 106.237L114.897 106.228L113.347 106.22L111.801 106.211L110.257 106.202L108.717 106.193L107.179 106.185L105.645 106.176L104.113 106.167L102.584 106.159L101.059 106.15L99.5363 106.141L98.0171 106.133L96.5002 106.124L94.9868 106.115L93.4759 106.107L91.9686 106.099L90.4636 106.09L88.9622 106.082L87.4632 106.073L85.9678 106.065L84.4753 106.056L82.9858 106.048L81.4987 106.04L80.0152 106.031L78.5347 106.023L77.0571 106.014L75.5832 106.006L74.1116 105.998L72.6429 105.99L71.1773 105.981L69.7153 105.973L68.2556 105.965L66.7995 105.957L65.3464 105.948L63.8962 105.94L62.4491 105.932L61.0049 105.924L59.5637 105.915L58.1255 105.907L56.6909 105.899L55.2586 105.891L53.8299 105.883L52.4042 105.875L50.9815 105.867L49.5618 105.859L48.145 105.851L46.7318 105.843L45.321 105.835L43.9138 105.827L42.5096 105.819L41.1083 105.811L39.71 105.803L38.3153 105.795L36.923 105.787L35.5342 105.78L34.1485 105.772L32.7657 105.764L31.3865 105.756L30.0097 105.748L28.6364 105.74L27.2661 105.733L25.8989 105.725L24.5352 105.717L23.1738 105.71L21.8161 105.702L20.4613 105.694L19.1101 105.687L17.7613 105.679L16.416 105.672L15.0738 105.664L13.7345 105.657L12.3988 105.649L11.0661 105.641L9.73636 105.634L8.40959 105.626L7.08641 105.619L5.7662 105.611L4.44899 105.604L3.13475 105.596L1.8241 105.589L0.516403 105.581L-0.78772 105.574L-2.08943 105.567L-3.38759 105.56L-4.68275 105.552L-5.97435 105.545L-7.26295 105.538L-8.5486 105.53L-9.83125 105.523L-11.1103 105.516L-12.3864 105.509L-13.6589 105.502L-14.9285 105.494L-16.195 105.487L-17.4586 105.48L-18.7186 105.473L-19.9756 105.466L-21.2291 105.459L-22.4796 105.452L-23.7271 105.444L-24.971 105.438L-26.2119 105.431L-27.4498 105.423L-28.6842 105.417L-29.9156 105.41L-31.1434 105.402L-32.3683 105.396L-33.5901 105.389L-34.8084 105.382L-36.0237 105.375L-37.2354 105.368L-38.4442 105.361L-39.6499 105.355L-40.8521 105.348L-42.0513 105.341L-43.247 105.334L-44.4396 105.327L-45.6293 105.321L-46.8154 105.314L-47.9979 105.307L-49.1774 105.301L-50.354 105.294L-51.527 105.287L-52.697 105.281L-53.8634 105.274L-55.0269 105.268L-56.1867 105.261L-57.3436 105.255L-58.4975 105.248L-59.6479 105.241L-60.7946 105.235L-61.9384 105.228L-63.0786 105.222L-64.2158 105.216L-65.3501 105.209L-66.4807 105.203L-67.6078 105.197L-68.7319 105.19L-69.8525 105.184L-70.97 105.177L-72.084 105.171L-73.195 105.165L-74.3024 105.159L-75.4069 105.152L-76.5077 105.146L-77.6056 105.14L-78.6999 105.134L-79.7906 105.127L-80.8784 105.122L-81.9626 105.115L-83.0438 105.109L-84.1214 105.103L-85.196 105.097L-86.2671 105.091L-87.3352 105.085L-88.3997 105.079L-89.4606 105.073L-90.518 105.067L-91.5729 105.061L-92.6237 105.055L-93.6715 105.049L-94.7158 105.043L-95.757 105.037L-96.7947 105.031L-97.8288 105.026L-98.86 105.02L-99.8875 105.014L-100.912 105.008L-101.933 105.002L-102.951 104.997L-103.964 104.991L-104.975 104.985L-105.983 104.98L-106.987 104.974L-107.988 104.968L-108.985 104.963L-109.979 104.957L-110.969 104.951L-111.956 104.946L-112.941 104.94L-113.921 104.935L-114.898 104.929L-115.871 104.924L-116.842 104.918L-117.808 104.913L-118.771 104.907L-119.732 104.902L-120.688 104.897L-121.641 104.891L-122.591 104.885L-123.537 104.88L-124.48 104.875L-125.42 104.87L-126.356 104.864L-127.289 104.859L-128.218 104.854L-129.144 104.848L-130.066 104.843L-130.985 104.838L-131.901 104.833L-132.813 104.828L-133.722 104.822L-134.626 104.818L-135.528 104.813L-136.426 104.807L-137.322 104.802L-138.213 104.797L-139.101 104.792L-139.985 104.787L-140.866 104.782L-141.744 104.777L-142.618 104.772L-143.489 104.768L-144.356 104.763L-145.22 104.758L-146.08 104.753L-146.936 104.748L-147.79 104.743L-148.64 104.739L-149.486 104.734L-150.329 104.729L-151.168 104.724L-152.004 104.719L-152.836 104.714L-153.665 104.71L-154.49 104.705L-155.312 104.701L-156.131 104.696L-156.945 104.691L-157.756 104.687L-158.564 104.682L-159.369 104.678L-160.169 104.673L-160.967 104.668L-161.761 104.664L-162.551 104.66L-163.338 104.655L-164.121 104.651L-164.9 104.647L-165.676 104.642L-166.449 104.638L-167.218 104.633L-167.984 104.629L-168.745 104.625L-169.504 104.62L-170.259 104.616L-171.01 104.612L-171.758 104.608L-172.502 104.603L-173.243 104.599L-173.98 104.595L-174.713 104.591L-175.444 104.587L-176.17 104.583L-176.893 104.579L-177.612 104.575L-178.328 104.571L-179.04 104.567L-179.749 104.563L-180.454 104.559L-181.155 104.555L-181.853 104.551L-182.547 104.547L-183.238 104.542L-183.925 104.539L-184.609 104.535L-185.288 104.531L-185.965 104.527L-186.638 104.523L-187.306 104.52L-187.972 104.516L-188.634 104.512L-189.292 104.509L-189.947 104.505L-190.598 104.501L-191.245 104.497L-191.889 104.494L-192.529 104.49L-193.166 104.487L-193.799 104.483L-194.428 104.48L-195.054 104.476L-195.676 104.472L-196.294 104.469L-196.909 104.465L-197.52 104.462L-198.127 104.459L-198.731 104.455L-199.332 104.452L-199.928 104.448L-200.521 104.445L-201.11 104.442L-201.696 104.438L-202.278 104.435L-202.856 104.432L-203.431 104.429L-204.001 104.426L-204.569 104.422L-205.132 104.419L-205.692 104.416L-206.248 104.413L-206.801 104.409L-207.35 104.406L-207.895 104.403L-208.437 104.4L-208.974 104.397L-209.509 104.394L-210.039 104.391L-210.566 104.388L-211.089 104.385L-211.608 104.382L-212.124 104.38L-212.636 104.376L-213.144 104.374L-213.648 104.371L-214.149 104.368L-214.646 104.365L-215.14 104.363L-215.629 104.359L-216.115 104.357L-216.597 104.354L-217.076 104.351L-217.551 104.349L-218.022 104.346L-218.489 104.343L-218.952 104.341L-219.412 104.338L-219.868 104.336L-220.321 104.333L-220.769 104.33L-221.214 104.328L-221.655 104.326L-222.093 104.323L-222.526 104.321L-222.956 104.318L-223.382 104.316L-223.804 104.313L-224.223 104.311L-224.638 104.309L-225.049 104.306L-225.456 104.304L-225.859 104.302L-226.259 104.3L-226.655 104.297L-227.047 104.295L-227.435 104.293L-227.82 104.291L-228.201 104.288L-228.578 104.286L-228.951 104.284L-229.32 104.282L-229.686 104.28L-230.048 104.278L-230.406 104.276L-230.76 104.274L-231.11 104.272L-231.457 104.27L-231.8 104.268L-232.138 104.266L-232.474 104.264L-232.805 104.263L-233.132 104.261L-233.456 104.259L-233.776 104.257L-234.092 104.255L-234.404 104.254L-234.712 104.252L-235.017 104.25L-235.318 104.248L-235.614 104.246L-235.907 104.245L-236.197 104.243L-236.482 104.242L-236.763 104.24L-237.041 104.238L-237.315 104.237L-237.584 104.235L-237.85 104.234L-238.113 104.233L-238.371 104.231L-238.625 104.23L-238.876 104.228L-239.123 104.227L-239.365 104.225L-239.604 104.224L-239.839 104.223L-240.071 104.221L-240.298 104.22L-240.521 104.219L-240.741 104.217L-240.956 104.217L-241.168 104.215L-241.376 104.214L-241.58 104.213L-241.78 104.212L-241.976 104.211L-242.168 104.209L-242.357 104.209L-242.541 104.208L-242.722 104.206L-242.898 104.205L-243.071 104.205L-243.24 104.204L-243.404 104.203L-243.565 104.202L-243.722 104.201L-243.875 104.2L-244.024 104.199L-244.17 104.198L-244.311 104.197L-244.448 104.196L-244.582 104.196L-244.711 104.195L-244.837 104.195L-244.958 104.194L-245.076 104.193L-245.189 104.192L-245.299 104.192L-245.405 104.191L-245.507 104.191L-245.604 104.19L-245.698 104.19L-245.788 104.189L-245.874 104.188L-245.956 104.188L-246.034 104.188L-246.108 104.187H-246.178L-246.244 104.187L-246.306 104.186L-246.364 104.186L-246.418 104.185H-246.468L-246.514 104.185H-246.556L-246.594 104.184H-246.629L-246.659 104.184H-246.685H-246.707H-246.725L-246.739 104.184H-246.749H-246.755ZM-246.761 224.29C-247.145 223.948 -247.144 223.948 -247.143 223.947L-247.136 223.943L-247.112 223.927L-247.106 223.923L-247.053 223.891L-247.014 223.866L-246.941 223.821L-246.858 223.769C-246.792 223.729 -246.714 223.681 -246.626 223.627C-246.282 223.416 -245.769 223.104 -245.087 222.697C-243.723 221.883 -241.685 220.692 -238.988 219.175C-233.592 216.142 -225.554 211.811 -214.978 206.615C-193.826 196.223 -162.52 182.371 -121.893 168.519C-40.6382 140.815 77.9065 113.113 227.081 113.113V114.006C78.1068 114.006 -40.2698 141.67 -121.399 169.331C-161.964 183.162 -193.216 196.992 -214.324 207.362C-224.878 212.547 -232.895 216.867 -238.272 219.889C-240.961 221.4 -242.989 222.587 -244.344 223.396C-245.022 223.8 -245.531 224.11 -245.871 224.318C-246.04 224.422 -246.168 224.501 -246.252 224.553C-246.286 224.574 -246.313 224.591 -246.333 224.604L-246.347 224.612L-246.37 224.627L-246.376 224.631C-246.376 224.631 -246.377 224.631 -246.406 224.606C-246.445 224.571 -246.539 224.488 -246.761 224.29ZM-247.016 173.879C-247.018 173.88 -247.019 173.88 -246.761 174.283C-246.504 174.686 -246.504 174.686 -246.503 174.685L-246.497 174.683L-246.474 174.675L-246.379 174.641C-246.294 174.611 -246.167 174.566 -245.997 174.507C-245.857 174.458 -245.689 174.4 -245.493 174.332C-245.373 174.291 -245.242 174.246 -245.101 174.198C-244.91 174.132 -244.699 174.06 -244.47 173.983C-243.114 173.523 -241.085 172.848 -238.396 171.988C-233.018 170.27 -224.998 167.813 -214.443 164.865C-193.331 158.967 -162.071 151.103 -121.497 143.237C-40.3473 127.507 78.0627 111.774 227.081 111.774V110.881C77.9506 110.881 -40.5607 126.626 -121.795 142.373C-162.413 150.246 -193.711 158.121 -214.859 164.028C-225.433 166.981 -233.469 169.443 -238.864 171.167C-241.561 172.029 -243.598 172.707 -244.961 173.169C-245.643 173.4 -246.157 173.578 -246.5 173.697C-246.597 173.731 -246.68 173.76 -246.749 173.785C-246.804 173.804 -246.85 173.82 -246.887 173.834L-246.985 173.868L-247.01 173.877L-247.016 173.879ZM-246.761 134.099C-246.873 133.66 -246.872 133.66 -246.871 133.66L-246.864 133.659L-246.84 133.655L-246.743 133.642C-246.657 133.63 -246.528 133.611 -246.357 133.588C-246.014 133.54 -245.502 133.47 -244.821 133.378C-243.46 133.195 -241.425 132.926 -238.729 132.584C-233.339 131.9 -225.307 130.923 -214.738 129.75C-193.6 127.405 -162.312 124.279 -121.707 121.152C-40.4963 114.9 77.9846 108.648 227.081 108.648V109.541C78.0287 109.541 -40.4111 115.791 -121.585 122.041C-162.172 125.166 -193.442 128.29 -214.563 130.633C-225.124 131.805 -233.148 132.781 -238.53 133.465C-241.222 133.806 -243.252 134.074 -244.61 134.257C-245.02 134.312 -245.369 134.36 -245.656 134.399C-245.844 134.425 -246.005 134.447 -246.14 134.466C-246.31 134.49 -246.438 134.508 -246.523 134.519L-246.619 134.533L-246.643 134.536L-246.648 134.537C-246.65 134.537 -246.65 134.537 -246.761 134.099Z" fill="url(#paint0_linear_7425_104655)" fill-opacity="0.8"/>
<path fill-rule="evenodd" clip-rule="evenodd" d="M589.27 -120.169C589.271 -120.17 589.272 -120.172 588.761 -120.402C588.251 -120.633 588.25 -120.632 588.249 -120.63L588.243 -120.623L588.22 -120.594C588.199 -120.568 588.167 -120.529 588.124 -120.477C588.039 -120.372 587.912 -120.217 587.742 -120.011C587.401 -119.599 586.891 -118.988 586.213 -118.19C584.856 -116.594 582.826 -114.252 580.136 -111.271C574.756 -105.308 566.736 -96.7868 556.179 -86.5603C535.066 -66.1073 503.811 -38.8369 463.248 -11.5669C382.115 42.9766 263.791 97.4861 114.919 97.4861V98.3791C264.195 98.3791 382.793 43.7213 464.044 -10.9026C504.673 -38.2163 535.976 -65.5291 557.122 -86.0142C567.696 -96.2568 575.731 -104.793 581.124 -110.77C583.82 -113.759 585.856 -116.108 587.218 -117.71C587.899 -118.511 588.412 -119.126 588.755 -119.541C588.926 -119.748 589.055 -119.905 589.142 -120.011C589.185 -120.064 589.217 -120.104 589.239 -120.131L589.263 -120.161L589.27 -120.169ZM589.213 -54.4762C589.214 -54.4775 589.215 -54.478 588.761 -54.7678C588.308 -55.0571 588.307 -55.0566 588.306 -55.0557L588.3 -55.0508L588.277 -55.0303L588.236 -54.9941L588.182 -54.9477C588.146 -54.916 588.102 -54.878 588.05 -54.8334L587.967 -54.762C587.917 -54.7186 587.861 -54.6709 587.8 -54.6186C587.46 -54.328 586.95 -53.8958 586.273 -53.3314C584.917 -52.2031 582.888 -50.5466 580.199 -48.4378C574.821 -44.2203 566.803 -38.1926 556.248 -30.9585C535.14 -16.49 503.888 2.80431 463.327 22.0986C382.202 60.6876 263.852 99.2721 114.919 99.2721V100.165C264.135 100.165 382.706 61.5064 463.966 22.8523C504.596 3.52539 535.902 -15.8024 557.053 -30.3C567.629 -37.5488 575.666 -43.5903 581.061 -47.8212C583.758 -49.9367 585.795 -51.5994 587.159 -52.734C587.84 -53.3015 588.354 -53.7368 588.697 -54.0306C588.869 -54.1775 588.998 -54.2891 589.084 -54.3641C589.127 -54.4016 589.16 -54.4298 589.182 -54.449L589.207 -54.4704L589.213 -54.4762ZM588.761 -9.22553C589.145 -8.88397 589.144 -8.88308 589.143 -8.88219L589.136 -8.87817L589.112 -8.86253L589.047 -8.82235L589.014 -8.80181C588.927 -8.74779 588.798 -8.66787 588.626 -8.56249C588.282 -8.35175 587.769 -8.03966 587.087 -7.63245C585.723 -6.81895 583.685 -5.62681 580.988 -4.11052C575.592 -1.0775 567.554 3.25348 556.978 8.44931C535.826 18.8414 504.52 32.6943 463.893 46.5458C382.638 74.2498 264.094 101.951 114.919 101.951V101.058C263.893 101.058 382.27 73.3943 463.399 45.7332C503.964 31.9027 535.216 18.0726 556.324 7.70277C566.878 2.51766 574.895 -1.80215 580.272 -4.82446C582.961 -6.33584 584.989 -7.52261 586.344 -8.33121C587.022 -8.73528 587.531 -9.04515 587.871 -9.25322C587.944 -9.29787 588.009 -9.33805 588.066 -9.37332C588.142 -9.4202 588.204 -9.4586 588.252 -9.48897C588.295 -9.51486 588.326 -9.53496 588.347 -9.5479L588.37 -9.56264L588.376 -9.56621C588.376 -9.56621 588.377 -9.56666 588.389 -9.55639C588.394 -9.55148 588.402 -9.54433 588.414 -9.53362C588.437 -9.51397 588.472 -9.48271 588.529 -9.43226L588.761 -9.22553ZM589.016 40.7387C589.016 40.7387 589.017 40.7388 589.016 40.7379C589.016 40.737 589.015 40.7352 589.013 40.7312C589.008 40.7236 588.999 40.7084 588.979 40.6771C588.945 40.6236 588.882 40.5231 588.761 40.3351C588.645 40.153 588.581 40.0534 588.546 39.9989C588.53 39.9735 588.52 39.9578 588.513 39.948C588.507 39.9386 588.505 39.9351 588.504 39.9337C588.503 39.9328 588.503 39.9328 588.503 39.9328L588.497 39.9351L588.474 39.9435L588.379 39.977C588.294 40.0069 588.167 40.0516 587.997 40.111C587.657 40.2293 587.148 40.4057 586.47 40.6356C585.114 41.095 583.085 41.7701 580.396 42.6296C575.018 44.3486 566.998 46.8052 556.443 49.7534C535.331 55.6507 504.071 63.5152 463.497 71.3806C382.347 87.111 263.937 102.844 114.919 102.844V103.737C264.049 103.737 382.561 87.9924 463.795 72.245C504.413 64.3716 535.711 56.4972 556.859 50.5901C567.433 47.6366 575.469 45.1751 580.864 43.4512C583.561 42.589 585.598 41.9112 586.961 41.4491C587.643 41.2178 588.157 41.0401 588.5 40.9205C588.672 40.8606 588.801 40.8151 588.887 40.7847L588.985 40.7499L589.01 40.741L589.016 40.7387ZM588.761 80.0729C588.842 80.3922 588.864 80.4792 588.869 80.5029C588.871 80.5118 588.871 80.5118 588.871 80.5118L588.864 80.5127L588.84 80.5163L588.743 80.5301C588.657 80.5422 588.528 80.5601 588.357 80.5837L588.196 80.606L587.999 80.6333C587.89 80.648 587.77 80.6646 587.641 80.682C587.402 80.7146 587.129 80.7516 586.821 80.7931C585.46 80.9766 583.425 81.2454 580.729 81.5874C575.339 82.2719 567.307 83.2488 556.738 84.4213C535.6 86.7663 504.312 89.8926 463.707 93.019C382.496 99.2712 264.015 105.523 114.919 105.523V104.63C263.971 104.63 382.411 98.38 463.585 92.1305C504.172 89.0059 535.442 85.8813 556.563 83.5382C567.124 82.3666 575.148 81.3905 580.53 80.707C583.222 80.3654 585.252 80.097 586.61 79.9144C587.289 79.8229 587.799 79.7528 588.14 79.7055C588.31 79.6823 588.438 79.6644 588.523 79.6523L588.619 79.639L588.643 79.6354L588.648 79.6345C588.648 79.6345 588.649 79.6345 588.651 79.643C588.654 79.6514 588.658 79.6675 588.666 79.6992L588.684 79.7698C588.701 79.8345 588.725 79.931 588.761 80.0729ZM588.755 104.184C588.756 104.184 588.757 104.184 588.761 104.63C588.766 105.077 588.765 105.077 588.764 105.077H588.758H588.748L588.734 105.077H588.716H588.694H588.668L588.637 105.077H588.603L588.565 105.078H588.523L588.477 105.078H588.427L588.373 105.079L588.315 105.079L588.253 105.08H588.187L588.117 105.08L588.043 105.081L587.965 105.081L587.883 105.081L587.797 105.082L587.707 105.083L587.613 105.083L587.516 105.084L587.414 105.084L587.308 105.085L587.198 105.085L587.085 105.086L586.967 105.087L586.846 105.087L586.72 105.088L586.591 105.089L586.457 105.089L586.32 105.09L586.179 105.091L586.033 105.092L585.884 105.093L585.731 105.094L585.574 105.095L585.413 105.096L585.249 105.097L585.08 105.097L584.907 105.098L584.731 105.099L584.55 105.1L584.366 105.102L584.177 105.102L583.985 105.104L583.789 105.105L583.589 105.106L583.385 105.107L583.177 105.108L582.965 105.11L582.75 105.11L582.53 105.112L582.307 105.113L582.08 105.114L581.848 105.116L581.613 105.117L581.374 105.118L581.132 105.12L580.885 105.121L580.634 105.122L580.38 105.124L580.122 105.126L579.859 105.127L579.593 105.128L579.324 105.13L579.05 105.131L578.772 105.133L578.491 105.135L578.206 105.136L577.916 105.138L577.623 105.139L577.327 105.141L577.026 105.143L576.721 105.145L576.413 105.147L576.101 105.148L575.785 105.15L575.465 105.152L575.141 105.154L574.814 105.156L574.483 105.157L574.147 105.159L573.808 105.161L573.466 105.163L573.119 105.165L572.769 105.167L572.415 105.169L572.057 105.171L571.695 105.173L571.329 105.175L570.96 105.177L570.587 105.179L570.21 105.181L569.829 105.184L569.444 105.186L569.056 105.188L568.664 105.19L568.268 105.193L567.868 105.195L567.465 105.197L567.058 105.199L566.647 105.202L566.232 105.204L565.813 105.206L565.391 105.209L564.965 105.211L564.535 105.214L564.102 105.216L563.664 105.218L563.223 105.221L562.778 105.223L562.33 105.226L561.877 105.229L561.421 105.231L560.961 105.234L560.498 105.236L560.031 105.239L559.56 105.242L559.085 105.244L558.606 105.247L558.124 105.25L557.638 105.252L557.149 105.255L556.655 105.258L556.158 105.261L555.657 105.264L555.153 105.267L554.645 105.269L554.133 105.273L553.617 105.275L553.098 105.278L552.575 105.281L552.048 105.284L551.517 105.287L550.983 105.29L550.446 105.293L549.904 105.296L549.359 105.299L548.81 105.302L548.257 105.306L547.701 105.309L547.141 105.312L546.578 105.315L546.01 105.319L545.44 105.322L544.865 105.325L544.287 105.328L543.705 105.331L543.119 105.335L542.53 105.338L541.937 105.341L541.341 105.345L540.74 105.348L540.136 105.352L539.529 105.355L538.918 105.358L538.303 105.362L537.685 105.365L537.063 105.369L536.437 105.373L535.808 105.376L535.175 105.38L534.538 105.383L533.898 105.387L533.254 105.39L532.607 105.394L531.956 105.398L531.301 105.402L530.643 105.405L529.981 105.409L529.315 105.413L528.647 105.416L527.974 105.42L527.297 105.424L526.618 105.428L525.934 105.432L525.247 105.435L524.556 105.439L523.862 105.444L523.164 105.448L522.463 105.452L521.758 105.456L521.049 105.46L520.337 105.464L519.621 105.468L518.902 105.472L518.179 105.476L517.453 105.48L516.722 105.484L515.989 105.488L515.252 105.492L514.511 105.496L513.767 105.501L513.019 105.505L512.268 105.509L511.513 105.513L510.754 105.518L509.993 105.522L509.227 105.526L508.458 105.531L507.685 105.535L506.909 105.54L506.13 105.544L505.347 105.548L504.56 105.552L503.77 105.557L502.976 105.561L502.179 105.566L501.378 105.571L500.574 105.575L499.765 105.58L498.954 105.584L498.139 105.589L497.321 105.594L496.499 105.598L495.674 105.603L494.845 105.607L494.013 105.612L493.177 105.617L492.338 105.622L491.495 105.627L490.649 105.632L489.799 105.636L488.945 105.641L488.089 105.646L487.229 105.651L486.365 105.656L485.498 105.661L484.627 105.665L483.753 105.67L482.875 105.675L481.994 105.68L481.11 105.685L480.222 105.69L479.331 105.695L478.435 105.7L477.537 105.706L476.635 105.711L475.731 105.715L474.822 105.721L473.91 105.726L472.994 105.731L472.075 105.736L471.153 105.741L470.227 105.747L469.298 105.752L468.365 105.757L467.429 105.763L466.49 105.768L465.547 105.773L464.6 105.778L463.65 105.784L462.697 105.789L461.741 105.795L460.78 105.8L459.817 105.806L458.85 105.811L457.88 105.816L456.907 105.822L455.93 105.828L454.949 105.833L453.965 105.839L452.978 105.844L451.988 105.85L450.994 105.856L449.996 105.861L448.996 105.867L447.992 105.873L446.984 105.878L445.974 105.884L444.959 105.89L443.942 105.895L442.921 105.901L441.896 105.907L440.869 105.913L439.838 105.919L438.804 105.924L437.766 105.93L436.725 105.936L435.68 105.942L434.633 105.948L433.582 105.954L432.527 105.96L431.47 105.966L430.409 105.972L429.344 105.978L428.276 105.984L427.205 105.99L426.131 105.996L425.053 106.002L423.972 106.008L422.887 106.015L421.8 106.02L420.709 106.027L419.615 106.033L418.517 106.039L417.416 106.045L416.311 106.052L415.204 106.058L414.093 106.064L412.979 106.07L411.861 106.077L410.741 106.083L409.617 106.09L408.49 106.096L407.359 106.102L406.225 106.109L405.088 106.115L403.947 106.121L402.804 106.128L401.657 106.134L400.506 106.141L399.353 106.148L398.196 106.154L397.036 106.161L395.872 106.167L394.706 106.174L393.536 106.18L392.363 106.187L391.186 106.194L390.007 106.2L388.824 106.207L387.638 106.214L386.449 106.22L385.256 106.227L384.06 106.234L382.861 106.241L381.659 106.248L380.454 106.254L379.245 106.261L378.033 106.268L376.817 106.275L375.599 106.282L374.377 106.289L373.152 106.295L371.925 106.303L370.693 106.309L369.459 106.316L368.221 106.324L366.98 106.33L365.736 106.337L364.488 106.345L363.238 106.352L361.985 106.359L360.728 106.366L359.468 106.373L358.204 106.38L356.937 106.387L355.668 106.395L354.395 106.402L353.119 106.409L351.84 106.416L350.558 106.423L349.272 106.431L347.983 106.438L346.692 106.445L345.397 106.453L344.098 106.46L342.797 106.467L341.493 106.474L340.185 106.482L338.874 106.489L337.56 106.497L336.243 106.504L334.923 106.512L333.599 106.519L332.273 106.527L330.943 106.534L329.61 106.542L328.274 106.549L326.935 106.557L325.593 106.565L324.248 106.572L322.899 106.58L321.548 106.587L320.193 106.595L318.835 106.603L317.474 106.61L316.11 106.618L314.743 106.626L313.373 106.633L311.999 106.641L310.622 106.649L309.243 106.657L307.86 106.665L306.475 106.673L305.086 106.68L303.694 106.688L302.299 106.696L300.901 106.704L299.499 106.712L298.095 106.72L296.688 106.728L295.278 106.736L293.864 106.744L292.447 106.752L291.027 106.76L289.605 106.768L288.179 106.776L286.75 106.784L285.319 106.792L283.883 106.8L282.445 106.808L281.004 106.816L279.56 106.825L278.113 106.833L276.663 106.841L275.209 106.85L273.753 106.858L272.294 106.866L270.832 106.874L269.366 106.882L267.897 106.891L266.426 106.899L264.952 106.907L263.474 106.916L261.994 106.924L260.51 106.933L259.024 106.941L257.534 106.949L256.041 106.958L254.546 106.966L253.047 106.975L251.545 106.983L250.041 106.992L248.533 107L247.023 107.008L245.509 107.017L243.992 107.026L242.473 107.034L240.95 107.043L239.425 107.052L237.896 107.06L236.365 107.069L234.83 107.078L233.292 107.086L231.752 107.095L230.208 107.104L228.662 107.113L227.112 107.121L225.56 107.13L224.005 107.139L222.447 107.148L220.885 107.156L219.321 107.165L217.754 107.174L216.184 107.183L214.611 107.192L213.035 107.201L211.456 107.21L209.874 107.219L208.289 107.228L206.701 107.237L205.111 107.246L203.517 107.255L201.921 107.264L200.321 107.273L198.719 107.282L197.114 107.291L195.505 107.3L193.894 107.309L192.28 107.318L190.663 107.327L189.043 107.337L187.42 107.346L185.795 107.355L184.166 107.364L182.535 107.373L180.9 107.383L179.263 107.392L177.623 107.401L175.98 107.41L174.333 107.42L172.685 107.429L171.033 107.438L169.379 107.448L167.721 107.457L166.061 107.467L164.397 107.476L162.731 107.485L161.062 107.495L159.39 107.504L157.716 107.513L156.038 107.523L154.358 107.533L152.674 107.542L150.988 107.551L149.299 107.561L147.608 107.571L145.912 107.58L144.215 107.59L142.515 107.6L140.812 107.609L139.105 107.619L137.396 107.629L135.685 107.638L133.97 107.648L132.253 107.658L130.533 107.667L128.809 107.677L127.083 107.687L125.355 107.697L123.623 107.706L121.889 107.716L120.152 107.726L118.412 107.736L116.669 107.746L114.924 107.755L114.915 106.862L116.66 106.853L118.403 106.843L120.143 106.833L121.88 106.823L123.614 106.813L125.346 106.804L127.074 106.794L128.801 106.784L130.524 106.775L132.244 106.765L133.961 106.755L135.676 106.745L137.388 106.736L139.096 106.726L140.803 106.716L142.506 106.707L144.206 106.697L145.904 106.687L147.599 106.678L149.29 106.668L150.979 106.659L152.665 106.649L154.349 106.64L156.029 106.63L157.707 106.62L159.382 106.611L161.053 106.602L162.722 106.592L164.388 106.583L166.052 106.574L167.712 106.564L169.37 106.555L171.024 106.545L172.676 106.536L174.325 106.527L175.971 106.517L177.614 106.508L179.254 106.499L180.891 106.49L182.525 106.48L184.157 106.471L185.786 106.462L187.412 106.453L189.034 106.444L190.654 106.434L192.271 106.425L193.885 106.416L195.496 106.407L197.105 106.398L198.71 106.389L200.312 106.38L201.912 106.371L203.508 106.362L205.102 106.353L206.692 106.344L208.28 106.335L209.865 106.326L211.447 106.317L213.026 106.308L214.602 106.299L216.175 106.29L217.745 106.281L219.312 106.272L220.876 106.263L222.438 106.255L223.996 106.246L225.551 106.237L227.103 106.228L228.653 106.22L230.199 106.211L231.743 106.202L233.283 106.193L234.821 106.185L236.355 106.176L237.887 106.167L239.416 106.159L240.941 106.15L242.464 106.141L243.983 106.133L245.5 106.124L247.013 106.115L248.524 106.107L250.031 106.099L251.536 106.09L253.038 106.082L254.537 106.073L256.032 106.065L257.525 106.056L259.014 106.048L260.501 106.04L261.985 106.031L263.465 106.023L264.943 106.014L266.417 106.006L267.888 105.998L269.357 105.99L270.823 105.981L272.285 105.973L273.744 105.965L275.201 105.957L276.654 105.948L278.104 105.94L279.551 105.932L280.995 105.924L282.436 105.915L283.875 105.907L285.309 105.899L286.741 105.891L288.17 105.883L289.596 105.875L291.018 105.867L292.438 105.859L293.855 105.851L295.268 105.843L296.679 105.835L298.086 105.827L299.49 105.819L300.892 105.811L302.29 105.803L303.685 105.795L305.077 105.787L306.466 105.78L307.852 105.772L309.234 105.764L310.614 105.756L311.99 105.748L313.364 105.74L314.734 105.733L316.101 105.725L317.465 105.717L318.826 105.71L320.184 105.702L321.539 105.694L322.89 105.687L324.239 105.679L325.584 105.672L326.926 105.664L328.265 105.657L329.601 105.649L330.934 105.641L332.264 105.634L333.59 105.626L334.914 105.619L336.234 105.611L337.551 105.604L338.865 105.596L340.176 105.589L341.484 105.581L342.788 105.574L344.089 105.567L345.388 105.56L346.683 105.552L347.974 105.545L349.263 105.538L350.549 105.53L351.831 105.523L353.11 105.516L354.386 105.509L355.659 105.502L356.928 105.494L358.195 105.487L359.459 105.48L360.719 105.473L361.976 105.466L363.229 105.459L364.48 105.452L365.727 105.444L366.971 105.438L368.212 105.431L369.45 105.423L370.684 105.417L371.916 105.41L373.143 105.402L374.368 105.396L375.59 105.389L376.808 105.382L378.024 105.375L379.235 105.368L380.444 105.361L381.65 105.355L382.852 105.348L384.051 105.341L385.247 105.334L386.44 105.327L387.629 105.321L388.815 105.314L389.998 105.307L391.177 105.301L392.354 105.294L393.527 105.287L394.697 105.281L395.863 105.274L397.027 105.268L398.187 105.261L399.344 105.255L400.498 105.248L401.648 105.241L402.795 105.235L403.938 105.228L405.079 105.222L406.216 105.216L407.35 105.209L408.481 105.203L409.608 105.197L410.732 105.19L411.852 105.184L412.97 105.177L414.084 105.171L415.195 105.165L416.302 105.159L417.407 105.152L418.508 105.146L419.606 105.14L420.7 105.134L421.791 105.127L422.878 105.122L423.963 105.115L425.044 105.109L426.121 105.103L427.196 105.097L428.267 105.091L429.335 105.085L430.4 105.079L431.461 105.073L432.518 105.067L433.573 105.061L434.624 105.055L435.672 105.049L436.716 105.043L437.757 105.037L438.795 105.031L439.829 105.026L440.86 105.02L441.888 105.014L442.912 105.008L443.933 105.002L444.951 104.997L445.964 104.991L446.975 104.985L447.983 104.98L448.987 104.974L449.988 104.968L450.985 104.963L451.979 104.957L452.969 104.951L453.956 104.946L454.941 104.94L455.921 104.935L456.898 104.929L457.871 104.924L458.842 104.918L459.808 104.913L460.771 104.907L461.732 104.902L462.688 104.897L463.641 104.891L464.591 104.885L465.537 104.88L466.48 104.875L467.42 104.87L468.356 104.864L469.289 104.859L470.218 104.854L471.144 104.848L472.066 104.843L472.985 104.838L473.901 104.833L474.813 104.828L475.722 104.822L476.626 104.818L477.528 104.813L478.426 104.807L479.322 104.802L480.213 104.797L481.101 104.792L481.985 104.787L482.866 104.782L483.744 104.777L484.618 104.772L485.489 104.768L486.356 104.763L487.22 104.758L488.08 104.753L488.936 104.748L489.79 104.743L490.64 104.739L491.486 104.734L492.329 104.729L493.168 104.724L494.004 104.719L494.836 104.714L495.665 104.71L496.49 104.705L497.312 104.701L498.131 104.696L498.945 104.691L499.756 104.687L500.564 104.682L501.369 104.678L502.169 104.673L502.967 104.668L503.761 104.664L504.551 104.66L505.338 104.655L506.121 104.651L506.9 104.647L507.676 104.642L508.449 104.638L509.218 104.633L509.984 104.629L510.745 104.625L511.504 104.62L512.259 104.616L513.01 104.612L513.758 104.608L514.502 104.603L515.243 104.599L515.98 104.595L516.713 104.591L517.444 104.587L518.17 104.583L518.893 104.579L519.612 104.575L520.328 104.571L521.04 104.567L521.749 104.563L522.454 104.559L523.155 104.555L523.853 104.551L524.547 104.547L525.238 104.542L525.925 104.539L526.609 104.535L527.288 104.531L527.965 104.527L528.638 104.523L529.306 104.52L529.972 104.516L530.634 104.512L531.292 104.509L531.947 104.505L532.598 104.501L533.245 104.497L533.889 104.494L534.529 104.49L535.166 104.487L535.799 104.483L536.428 104.48L537.054 104.476L537.676 104.472L538.294 104.469L538.909 104.465L539.52 104.462L540.127 104.459L540.731 104.455L541.332 104.452L541.928 104.448L542.521 104.445L543.11 104.442L543.696 104.438L544.278 104.435L544.856 104.432L545.431 104.429L546.001 104.426L546.569 104.422L547.132 104.419L547.692 104.416L548.248 104.413L548.801 104.409L549.35 104.406L549.895 104.403L550.437 104.4L550.974 104.397L551.509 104.394L552.039 104.391L552.566 104.388L553.089 104.385L553.608 104.382L554.124 104.38L554.636 104.376L555.144 104.374L555.648 104.371L556.149 104.368L556.646 104.365L557.14 104.363L557.629 104.359L558.115 104.357L558.597 104.354L559.076 104.351L559.551 104.349L560.022 104.346L560.489 104.343L560.952 104.341L561.412 104.338L561.868 104.336L562.321 104.333L562.769 104.33L563.214 104.328L563.655 104.326L564.093 104.323L564.526 104.321L564.956 104.318L565.382 104.316L565.804 104.313L566.223 104.311L566.638 104.309L567.049 104.306L567.456 104.304L567.859 104.302L568.259 104.3L568.655 104.297L569.047 104.295L569.435 104.293L569.82 104.291L570.201 104.288L570.578 104.286L570.951 104.284L571.32 104.282L571.686 104.28L572.048 104.278L572.406 104.276L572.76 104.274L573.11 104.272L573.457 104.27L573.8 104.268L574.138 104.266L574.474 104.264L574.805 104.263L575.132 104.261L575.456 104.259L575.776 104.257L576.092 104.255L576.404 104.254L576.712 104.252L577.017 104.25L577.318 104.248L577.614 104.246L577.907 104.245L578.197 104.243L578.482 104.242L578.763 104.24L579.041 104.238L579.315 104.237L579.584 104.235L579.85 104.234L580.113 104.233L580.371 104.231L580.625 104.23L580.876 104.228L581.123 104.227L581.365 104.225L581.604 104.224L581.839 104.223L582.071 104.221L582.298 104.22L582.521 104.219L582.741 104.217L582.956 104.217L583.168 104.215L583.376 104.214L583.58 104.213L583.78 104.212L583.976 104.211L584.168 104.209L584.357 104.209L584.541 104.208L584.722 104.206L584.898 104.205L585.071 104.205L585.24 104.204L585.404 104.203L585.565 104.202L585.722 104.201L585.875 104.2L586.024 104.199L586.17 104.198L586.311 104.197L586.448 104.196L586.582 104.196L586.711 104.195L586.837 104.195L586.958 104.194L587.076 104.193L587.189 104.192L587.299 104.192L587.405 104.191L587.507 104.191L587.604 104.19L587.698 104.19L587.788 104.189L587.874 104.188L587.956 104.188L588.034 104.188L588.108 104.187H588.178L588.244 104.187L588.306 104.186L588.364 104.186L588.418 104.185H588.468L588.514 104.185H588.556L588.594 104.184H588.629L588.659 104.184H588.685H588.707H588.725L588.739 104.184H588.749H588.755ZM588.761 224.29C589.145 223.948 589.144 223.948 589.143 223.947L589.136 223.943L589.112 223.927L589.106 223.923L589.053 223.891L589.014 223.866L588.941 223.821L588.858 223.769C588.792 223.729 588.714 223.681 588.626 223.627C588.282 223.416 587.769 223.104 587.087 222.697C585.723 221.883 583.685 220.692 580.988 219.175C575.592 216.142 567.554 211.811 556.978 206.615C535.826 196.223 504.52 182.371 463.893 168.519C382.638 140.815 264.094 113.113 114.919 113.113V114.006C263.893 114.006 382.27 141.67 463.399 169.331C503.964 183.162 535.216 196.992 556.324 207.362C566.878 212.547 574.895 216.867 580.272 219.889C582.961 221.4 584.989 222.587 586.344 223.396C587.022 223.8 587.531 224.11 587.871 224.318C588.04 224.422 588.168 224.501 588.252 224.553C588.286 224.574 588.313 224.591 588.333 224.604L588.347 224.612L588.37 224.627L588.376 224.631C588.376 224.631 588.377 224.631 588.406 224.606C588.445 224.571 588.539 224.488 588.761 224.29ZM589.016 173.879C589.018 173.88 589.019 173.88 588.761 174.283C588.504 174.686 588.504 174.686 588.503 174.685L588.497 174.683L588.474 174.675L588.379 174.641C588.294 174.611 588.167 174.566 587.997 174.507C587.857 174.458 587.689 174.4 587.493 174.332C587.373 174.291 587.242 174.246 587.101 174.198C586.91 174.132 586.699 174.06 586.47 173.983C585.114 173.523 583.085 172.848 580.396 171.988C575.018 170.27 566.998 167.813 556.443 164.865C535.331 158.967 504.071 151.103 463.497 143.237C382.347 127.507 263.937 111.774 114.919 111.774V110.881C264.049 110.881 382.561 126.626 463.795 142.373C504.413 150.246 535.711 158.121 556.859 164.028C567.433 166.981 575.469 169.443 580.864 171.167C583.561 172.029 585.598 172.707 586.961 173.169C587.643 173.4 588.157 173.578 588.5 173.697C588.597 173.731 588.68 173.76 588.749 173.785C588.804 173.804 588.85 173.82 588.887 173.834L588.985 173.868L589.01 173.877L589.016 173.879ZM588.761 134.099C588.873 133.66 588.872 133.66 588.871 133.66L588.864 133.659L588.84 133.655L588.743 133.642C588.657 133.63 588.528 133.611 588.357 133.588C588.014 133.54 587.502 133.47 586.821 133.378C585.46 133.195 583.425 132.926 580.729 132.584C575.339 131.9 567.307 130.923 556.738 129.75C535.6 127.405 504.312 124.279 463.707 121.152C382.496 114.9 264.015 108.648 114.919 108.648V109.541C263.971 109.541 382.411 115.791 463.585 122.041C504.172 125.166 535.442 128.29 556.563 130.633C567.124 131.805 575.148 132.781 580.53 133.465C583.222 133.806 585.252 134.074 586.61 134.257C587.02 134.312 587.369 134.36 587.656 134.399C587.844 134.425 588.005 134.447 588.14 134.466C588.31 134.49 588.438 134.508 588.523 134.519L588.619 134.533L588.643 134.536L588.648 134.537C588.65 134.537 588.65 134.537 588.761 134.099Z" fill="url(#paint1_linear_7425_104655)" fill-opacity="0.8"/>
<g filter="url(#filter0_b_7425_104655)">
<rect x="123" y="52" width="96" height="96" rx="48" fill="#DBD2EF" fill-opacity="0.25"/>
<rect x="122" y="51" width="98" height="98" rx="49" stroke="url(#paint2_radial_7425_104655)" stroke-width="2"/>
<path fill-rule="evenodd" clip-rule="evenodd" d="M191 106C181.278 106 177 110.278 177 120C177 110.278 172.722 106 163 106C172.722 106 177 101.722 177 92C177 101.722 181.278 106 191 106Z" stroke="#DBD2EF" stroke-width="4" stroke-linejoin="round"/>
<path fill-rule="evenodd" clip-rule="evenodd" d="M169 89C162.75 89 160 91.75 160 98C160 91.75 157.25 89 151 89C157.25 89 160 86.25 160 80C160 86.25 162.75 89 169 89Z" stroke="#DBD2EF" stroke-width="4" stroke-linejoin="round"/>
</g>
<g filter="url(#filter1_b_7425_104655)">
<rect x="235" y="71.4038" width="57.1924" height="57.1924" rx="28.5962" fill="#DBD2EF" fill-opacity="0.1"/>
</g>
<g filter="url(#filter2_b_7425_104655)">
<rect x="308.192" y="71.4038" width="57.1924" height="57.1924" rx="28.5962" fill="url(#paint3_linear_7425_104655)" fill-opacity="0.1"/>
</g>
<g filter="url(#filter3_b_7425_104655)">
<rect x="-23.3848" y="71.4038" width="57.1924" height="57.1924" rx="28.5962" fill="url(#paint4_linear_7425_104655)" fill-opacity="0.1"/>
</g>
<g filter="url(#filter4_b_7425_104655)">
<rect x="49.8076" y="71.4038" width="57.1924" height="57.1924" rx="28.5962" fill="#DBD2EF" fill-opacity="0.1"/>
</g>
<rect width="341.931" height="200" fill="url(#paint5_radial_7425_104655)"/>
</g>
<defs>
<filter id="filter0_b_7425_104655" x="81" y="10" width="180" height="180" filterUnits="userSpaceOnUse" color-interpolation-filters="sRGB">
<feFlood flood-opacity="0" result="BackgroundImageFix"/>
<feGaussianBlur in="BackgroundImageFix" stdDeviation="20"/>
<feComposite in2="SourceAlpha" operator="in" result="effect1_backgroundBlur_7425_104655"/>
<feBlend mode="normal" in="SourceGraphic" in2="effect1_backgroundBlur_7425_104655" result="shape"/>
</filter>
<filter id="filter1_b_7425_104655" x="195" y="31.4038" width="137.192" height="137.192" filterUnits="userSpaceOnUse" color-interpolation-filters="sRGB">
<feFlood flood-opacity="0" result="BackgroundImageFix"/>
<feGaussianBlur in="BackgroundImageFix" stdDeviation="20"/>
<feComposite in2="SourceAlpha" operator="in" result="effect1_backgroundBlur_7425_104655"/>
<feBlend mode="normal" in="SourceGraphic" in2="effect1_backgroundBlur_7425_104655" result="shape"/>
</filter>
<filter id="filter2_b_7425_104655" x="268.192" y="31.4038" width="137.192" height="137.192" filterUnits="userSpaceOnUse" color-interpolation-filters="sRGB">
<feFlood flood-opacity="0" result="BackgroundImageFix"/>
<feGaussianBlur in="BackgroundImageFix" stdDeviation="20"/>
<feComposite in2="SourceAlpha" operator="in" result="effect1_backgroundBlur_7425_104655"/>
<feBlend mode="normal" in="SourceGraphic" in2="effect1_backgroundBlur_7425_104655" result="shape"/>
</filter>
<filter id="filter3_b_7425_104655" x="-63.3848" y="31.4038" width="137.192" height="137.192" filterUnits="userSpaceOnUse" color-interpolation-filters="sRGB">
<feFlood flood-opacity="0" result="BackgroundImageFix"/>
<feGaussianBlur in="BackgroundImageFix" stdDeviation="20"/>
<feComposite in2="SourceAlpha" operator="in" result="effect1_backgroundBlur_7425_104655"/>
<feBlend mode="normal" in="SourceGraphic" in2="effect1_backgroundBlur_7425_104655" result="shape"/>
</filter>
<filter id="filter4_b_7425_104655" x="9.80762" y="31.4038" width="137.192" height="137.192" filterUnits="userSpaceOnUse" color-interpolation-filters="sRGB">
<feFlood flood-opacity="0" result="BackgroundImageFix"/>
<feGaussianBlur in="BackgroundImageFix" stdDeviation="20"/>
<feComposite in2="SourceAlpha" operator="in" result="effect1_backgroundBlur_7425_104655"/>
<feBlend mode="normal" in="SourceGraphic" in2="effect1_backgroundBlur_7425_104655" result="shape"/>
</filter>
<linearGradient id="paint0_linear_7425_104655" x1="180.63" y1="47.4723" x2="-173.269" y2="47.4723" gradientUnits="userSpaceOnUse">
<stop offset="0.0182341" stop-color="white" stop-opacity="0"/>
<stop offset="0.127609" stop-color="white" stop-opacity="0.3"/>
<stop offset="0.563305" stop-color="white" stop-opacity="0.4"/>
<stop offset="0.943305" stop-color="white" stop-opacity="0"/>
</linearGradient>
<linearGradient id="paint1_linear_7425_104655" x1="161.37" y1="47.4723" x2="515.269" y2="47.4723" gradientUnits="userSpaceOnUse">
<stop offset="0.0182341" stop-color="white" stop-opacity="0"/>
<stop offset="0.127609" stop-color="white" stop-opacity="0.3"/>
<stop offset="0.563305" stop-color="white" stop-opacity="0.4"/>
<stop offset="0.943305" stop-color="white" stop-opacity="0"/>
</linearGradient>
<radialGradient id="paint2_radial_7425_104655" cx="0" cy="0" r="1" gradientUnits="userSpaceOnUse" gradientTransform="translate(171 100) rotate(90) scale(98.533)">
<stop stop-color="#EAAEFF"/>
<stop offset="0.49" stop-color="#FF8DCB"/>
<stop offset="1" stop-color="#7E6AA6"/>
</radialGradient>
<linearGradient id="paint3_linear_7425_104655" x1="308.192" y1="101.633" x2="341.609" y2="101.633" gradientUnits="userSpaceOnUse">
<stop stop-color="white"/>
<stop offset="1" stop-color="white" stop-opacity="0"/>
</linearGradient>
<linearGradient id="paint4_linear_7425_104655" x1="-4.12255" y1="101.633" x2="33.8077" y2="101.633" gradientUnits="userSpaceOnUse">
<stop stop-color="white" stop-opacity="0"/>
<stop offset="1" stop-color="white"/>
</linearGradient>
<radialGradient id="paint5_radial_7425_104655" cx="0" cy="0" r="1" gradientUnits="userSpaceOnUse" gradientTransform="translate(170.966 100) rotate(90) scale(112.122 191.691)">
<stop stop-color="#393149" stop-opacity="0"/>
<stop offset="1" stop-color="#393149"/>
</radialGradient>
<clipPath id="clip0_7425_104655">
<rect x="0.333252" width="341.333" height="200" rx="4" fill="white"/>
</clipPath>
</defs>
</svg>
