<svg width="20" height="20" viewBox="0 0 20 20" fill="none" xmlns="http://www.w3.org/2000/svg">
<g id="droplets-03">
<path id="Icon" d="M10.4667 5.06668C11.0398 4.15095 11.4461 3.14088 11.6667 2.08334C12.0833 4.16668 13.3333 6.16668 15 7.50001C16.6667 8.83334 17.5 10.4167 17.5 12.0833C17.5048 13.2353 17.1674 14.3626 16.5307 15.3226C15.8939 16.2825 14.9865 17.0318 13.9234 17.4754C12.8604 17.919 11.6895 18.037 10.5593 17.8144C9.42911 17.5918 8.39044 17.0386 7.575 16.225M5.83333 13.15C7.66667 13.15 9.16667 11.625 9.16667 9.77501C9.16667 8.80834 8.69167 7.89168 7.74167 7.11668C6.79167 6.34168 6.075 5.19168 5.83333 3.98334C5.59167 5.19168 4.88333 6.35001 3.925 7.11668C2.96667 7.88334 2.5 8.81668 2.5 9.77501C2.5 11.625 4 13.15 5.83333 13.15Z" stroke="#A48AFB" stroke-width="1.66667" stroke-linecap="round" stroke-linejoin="round"/>
</g>
</svg>
