<svg width="20" height="16" viewBox="0 0 20 16" fill="none" xmlns="http://www.w3.org/2000/svg">
<g id="Gho svg" clip-path="url(#clip0_7518_180)">
<path id="Vector" fill-rule="evenodd" clip-rule="evenodd" d="M7.26438 0.462311H12.7229L14.4377 3.3159H7.29559V3.31605C4.80137 3.31605 2.77933 5.39223 2.77933 7.95322C2.77933 10.4902 4.76355 12.5515 7.22566 12.5899H16.4516L13.6728 7.95352H17.1469L19.9258 12.5899H19.9577V15.4392H7.29559V15.4442C7.20679 15.4442 7.11836 15.4425 7.03033 15.4392H6.70757V15.4201C2.95333 15.1127 0 11.887 0 7.95322C0 3.82683 3.24953 0.479576 7.26438 0.462311ZM8.33792 5.84056C8.33792 6.62859 7.71575 7.26742 6.94825 7.26742C6.18077 7.26742 5.55859 6.62859 5.55859 5.84056C5.55859 5.05252 6.18077 4.41368 6.94825 4.41368C7.71575 4.41368 8.33792 5.05252 8.33792 5.84056ZM6.94825 11.2189C7.71575 11.2189 8.33792 10.58 8.33792 9.79198C8.33792 9.00394 7.71575 8.36512 6.94825 8.36512C6.18077 8.36512 5.55859 9.00394 5.55859 9.79198C5.55859 10.58 6.18077 11.2189 6.94825 11.2189Z" fill="#AC8DF1"/>
</g>
<defs>
<clipPath id="clip0_7518_180">
<rect width="20" height="15.0754" fill="white" transform="translate(0 0.462311)"/>
</clipPath>
</defs>
</svg>
