<svg width="1051" height="721" viewBox="0 0 1051 721" fill="none" xmlns="http://www.w3.org/2000/svg">
<path d="M0.273516 1.27352V789M44.0361 1.27352V789M87.7987 1.27352V789M131.561 1.27352V789M175.324 1.27352V789M219.086 1.27352V789M262.849 1.27352V789M306.612 1.27352V789M350.374 1.27352V789M394.137 1.27352V789M437.899 1.27352V789M481.662 1.27352V789M525.424 1.27352V789M569.187 1.27352V789M612.95 1.27352V789M656.712 1.27352V789M700.475 1.27352V789M744.237 1.27352V789M788 1.27352V789M831.763 1.27352V789M875.525 1.27352V789M919.288 1.27352V789M963.05 1.27352V789M1006.81 1.27352V789M1050.58 1.27352V789M0 1H1050.3M0 44.7626H1050.3M0 88.5252H1050.3M0 132.288H1050.3M0 176.05H1050.3M0 219.813H1050.3M0 263.575H1050.3M0 307.338H1050.3M0 351.101H1050.3M0 394.863H1050.3M0 438.626H1050.3M0 482.388H1050.3M0 526.151H1050.3M0 569.914H1050.3M0 613.676H1050.3M0 657.439H1050.3M0 701.201H1050.3M0 744.964H1050.3M0 788.726H1050.3" stroke="url(#paint0_radial_35_2214)" stroke-opacity="0.2" stroke-width="0.75"/>
<defs>
<radialGradient id="paint0_radial_35_2214" cx="0" cy="0" r="1" gradientUnits="userSpaceOnUse" gradientTransform="translate(282.271 290.857) rotate(57.6747) scale(498.257 557.741)">
<stop stop-color="#D0D5DD"/>
<stop offset="1" stop-color="#D0D5DD" stop-opacity="0"/>
</radialGradient>
</defs>
</svg>
