<svg width="113" height="58" viewBox="0 0 113 58" fill="none" xmlns="http://www.w3.org/2000/svg">
<g id="g8">
<g id="g10">
<path id="path12" d="M1.82906 2.221H106.241V38.7052H1.82906V2.221ZM0 40.5515H108.103V0.39106H0V40.5515Z" fill="white"/>
<path id="path14" d="M28.9302 10.8887V30.013L30.4326 30.2091V31.3283H23.0184V30.2091L24.6188 30.013V21.3045H15.1224V30.013L16.584 30.2091V31.3283H9.29224V30.2091L10.7539 30.013V10.8887L9.29224 10.6926V9.59793H16.584V10.6926L15.1224 10.8887V19.058H24.6107V10.8887L23.0102 10.6926V9.59793H30.4245V10.6926L28.9302 10.8887Z" fill="white"/>
<path id="path16" d="M39.0474 30.1519L40.4437 30.348V31.3283H33.6255V30.348L35.0218 30.1519V17.0483L33.6255 16.8523V15.8719H39.0474V30.1519Z" fill="white"/>
<path id="path18" d="M43.4077 30.3806L44.7713 30.1927V10.7579L43.4077 10.5618V9.60603H48.8296V30.1927L50.2259 30.3806V31.3446H43.4077V30.3806Z" fill="white"/>
<path id="path20" d="M58.5219 15.8638H62.18V17.3097H58.5219V26.5084C58.5219 28.8856 59.0118 29.6454 61.1756 29.6454C61.9759 29.6454 62.6781 29.6454 63.3395 29.4738V30.5359C61.3716 31.2302 59.714 31.5162 58.3177 31.5162C55.1822 31.5162 54.4636 30.1029 54.4636 27.3988V17.3097H51.6057V15.8638H54.5698V12.6369L58.53 11.4523V15.8638" fill="white"/>
<path id="path22" d="M80.5196 23.7472C80.5196 28.5671 77.2616 31.7939 72.1337 31.7939C67.1772 31.7939 64.009 29.6863 64.009 23.7472C64.009 18.772 67.2671 15.439 72.395 15.439C77.4657 15.4308 80.5196 18.4453 80.5196 23.7472ZM76.0694 23.6491C76.0694 18.7639 74.6078 16.6317 72.248 16.6317C69.9453 16.6317 68.4837 18.674 68.4837 23.6491C68.4837 28.5671 69.9453 30.6094 72.248 30.6094C74.7058 30.6094 76.0694 28.6569 76.0694 23.6491Z" fill="white"/>
<path id="path24" d="M99.0389 30.348V31.3283H92.2207V30.348L93.5843 30.1519V21.3454C93.5843 18.9028 92.678 17.8081 90.8244 17.8081C89.9671 17.8081 88.5953 18.4044 87.5991 19.0988V30.1438L88.9954 30.3398V31.3201H82.1445V30.3398L83.5408 30.1438V17.1464L82.1445 16.9503V15.8556H87.5991V18.0041C89.2893 16.6562 90.9306 15.5615 93.2169 15.5615C96.2708 15.5615 97.6426 17.3424 97.6426 20.8471V30.1601L99.0389 30.348Z" fill="white"/>
<path id="path26" d="M39.2514 11.7791C39.2514 12.98 38.2716 13.9603 37.0549 13.9603C35.8383 13.9603 34.8584 12.9964 34.8584 11.7791C34.8584 10.5782 35.8383 9.59792 37.0549 9.59792C38.2716 9.59792 39.2514 10.5782 39.2514 11.7791Z" fill="white"/>
<path id="path28" d="M110.83 1.5756H111.148C111.361 1.5756 111.442 1.51025 111.442 1.3632C111.442 1.21616 111.369 1.15079 111.148 1.15079H110.83V1.5756ZM111.728 1.34687C111.728 1.55927 111.638 1.6818 111.45 1.74716L111.785 2.23732H111.475L111.165 1.78801H110.83V2.23732H110.569V0.913892H111.148C111.557 0.913892 111.728 1.05277 111.728 1.34687ZM110.038 1.59195C110.038 2.18831 110.528 2.69481 111.14 2.69481C111.736 2.69481 112.242 2.20465 112.242 1.59195C112.242 0.995589 111.753 0.489092 111.14 0.489092C110.528 0.489092 110.038 0.979251 110.038 1.59195ZM112.52 1.59195C112.52 2.35987 111.891 2.98889 111.124 2.98889C110.356 2.98889 109.728 2.35987 109.728 1.59195C109.728 0.824034 110.356 0.194988 111.124 0.194988C111.908 0.194988 112.52 0.807695 112.52 1.59195Z" fill="white"/>
<path id="path30" d="M3.94403 57.6008H2.30277C2.11497 57.6008 2.02515 57.511 2.02515 57.3231V48.3858C2.02515 48.1979 2.11497 48.1081 2.30277 48.1081H8.2309C8.41871 48.1081 8.50853 48.1979 8.50853 48.3858V49.8318C8.50853 50.0197 8.41871 50.1096 8.2309 50.1096H4.22166V52.397H7.24288C7.43069 52.397 7.52051 52.4868 7.52051 52.6747V54.0145C7.52051 54.2024 7.43069 54.2923 7.24288 54.2923H4.22166V57.3803C4.22166 57.5273 4.13184 57.6008 3.94403 57.6008Z" fill="white"/>
<path id="path32" d="M16.3554 55.3134C16.7719 55.0683 17.0903 54.7334 17.3353 54.3004C17.5803 53.8674 17.7027 53.3936 17.7027 52.8708C17.7027 52.3479 17.5803 51.8741 17.3353 51.4411C17.0903 51.0082 16.7556 50.6732 16.3391 50.4281C15.9227 50.1831 15.4817 50.0605 15 50.0605C14.5264 50.0605 14.0609 50.1831 13.6608 50.4281C13.2444 50.6732 12.9259 51.0082 12.681 51.4411C12.436 51.8741 12.3135 52.3479 12.3135 52.8708C12.3135 53.3936 12.436 53.8674 12.681 54.3004C12.9259 54.7334 13.2607 55.0683 13.6772 55.3134C14.0936 55.5585 14.5345 55.681 15.0163 55.681C15.4899 55.681 15.939 55.5585 16.3554 55.3134ZM12.5177 57.127C11.7665 56.6777 11.1704 56.0976 10.7376 55.3461C10.3048 54.5945 10.0925 53.7612 10.0925 52.8544C10.0925 51.9476 10.3048 51.1307 10.7376 50.3791C11.1704 49.6275 11.7665 49.0394 12.5177 48.5982C13.2689 48.1652 14.1018 47.9528 15.0245 47.9528C15.9308 47.9528 16.7556 48.1652 17.5149 48.5982C18.2662 49.0312 18.8622 49.6275 19.295 50.3791C19.7278 51.1307 19.9401 51.964 19.9401 52.8544C19.9401 53.7612 19.7278 54.5782 19.295 55.3461C18.8622 56.0976 18.2662 56.694 17.5149 57.127C16.7637 57.5763 15.9308 57.7887 15.0245 57.7887C14.0936 57.7724 13.2689 57.56 12.5177 57.127Z" fill="white"/>
<path id="path34" d="M26.644 52.4542C26.8399 52.3316 26.9951 52.1764 27.1012 51.9803C27.2074 51.7843 27.2727 51.5637 27.2727 51.3186C27.2727 51.0572 27.2074 50.8285 27.1012 50.6242C26.9951 50.4363 26.8399 50.2893 26.644 50.1913C26.4562 50.1014 26.2439 50.0524 25.9989 50.0524H24.3413V52.6175H25.9662C26.2112 52.6257 26.4398 52.5767 26.644 52.4542ZM22.1611 57.3394V48.4022C22.1611 48.2143 22.251 48.1244 22.4388 48.1244H26.1867C26.8318 48.1244 27.4115 48.2633 27.9096 48.5247C28.4159 48.8025 28.7997 49.1701 29.0773 49.6439C29.3549 50.1177 29.4937 50.6732 29.4937 51.3023C29.4937 51.915 29.3712 52.4378 29.1099 52.8708C28.8486 53.3038 28.4975 53.6551 28.0158 53.9328L29.6734 57.2822C29.706 57.3476 29.7224 57.3884 29.7224 57.4211C29.7224 57.4865 29.706 57.511 29.657 57.5436C29.608 57.5763 29.5509 57.5927 29.4856 57.5927H27.5993C27.4442 57.5927 27.338 57.5273 27.2809 57.3966L25.9336 54.4965H24.3495V57.3231C24.3495 57.511 24.2597 57.6008 24.0719 57.6008H22.4306C22.2346 57.6008 22.1611 57.5273 22.1611 57.3394Z" fill="white"/>
<path id="path36" d="M40.7212 57.6008H39.08C38.8922 57.6008 38.8024 57.511 38.8024 57.3231V50.1504H36.4344C36.2466 50.1504 36.1567 50.0605 36.1567 49.8727V48.3695C36.1567 48.1816 36.2466 48.0917 36.4344 48.0917H43.3587C43.5465 48.0917 43.6363 48.1816 43.6363 48.3695V49.8727C43.6363 50.0605 43.5465 50.1504 43.3587 50.1504H40.9825V57.3231C40.9989 57.5273 40.909 57.6008 40.7212 57.6008Z" fill="white"/>
<path id="path38" d="M48.0947 57.6008H46.4534C46.2656 57.6008 46.1758 57.511 46.1758 57.3231V48.3858C46.1758 48.1979 46.2656 48.1081 46.4534 48.1081H48.0947C48.2825 48.1081 48.3723 48.1979 48.3723 48.3858V51.6127H52.2264V48.3858C52.2264 48.1979 52.3162 48.1081 52.504 48.1081H54.1616C54.3494 48.1081 54.4392 48.1979 54.4392 48.3858V57.3231C54.4392 57.511 54.3494 57.6008 54.1616 57.6008H52.504C52.3162 57.6008 52.2264 57.511 52.2264 57.3231V53.6959H48.3723V57.3231C48.356 57.5273 48.2743 57.6008 48.0947 57.6008Z" fill="white"/>
<path id="path40" d="M64.3683 57.6008H57.9666C57.7788 57.6008 57.689 57.511 57.689 57.3231V48.3858C57.689 48.1979 57.7788 48.1081 57.9666 48.1081H64.2785C64.4663 48.1081 64.5561 48.1979 64.5561 48.3858V49.8482C64.5561 50.036 64.4663 50.1259 64.2785 50.1259H59.8855V51.8251H63.266C63.4538 51.8251 63.5436 51.915 63.5436 52.1029V53.4427C63.5436 53.6305 63.4538 53.7204 63.266 53.7204H59.8855V55.6402H64.3683C64.5561 55.6402 64.6459 55.7301 64.6459 55.918V57.3803C64.6296 57.5273 64.5398 57.6008 64.3683 57.6008Z" fill="white"/>
<path id="path42" d="M73.1788 57.3557C72.5501 57.078 71.9948 56.6777 71.5212 56.1549C71.4559 56.0895 71.4478 56.0323 71.4478 55.967C71.4478 55.9016 71.4804 55.8281 71.5539 55.7709L72.5991 54.7742C72.6644 54.7089 72.7216 54.6844 72.7869 54.6844C72.8604 54.6844 72.9257 54.7171 72.9829 54.7906C73.2931 55.101 73.6279 55.3461 74.0117 55.5013C74.3955 55.6565 74.7956 55.7464 75.1957 55.7464C75.6285 55.7464 75.9633 55.6729 76.1919 55.5013C76.4205 55.3461 76.543 55.1174 76.543 54.8396C76.543 54.6517 76.494 54.4883 76.3879 54.3658C76.2817 54.2269 76.0939 54.1044 75.8326 53.9982C75.5713 53.8756 75.2039 53.7531 74.7303 53.6142C73.9464 53.3855 73.2687 53.0423 72.6889 52.5849C72.1173 52.1274 71.8315 51.4902 71.8315 50.6651C71.8315 50.1749 71.954 49.7256 72.2153 49.3171C72.4603 48.9005 72.844 48.5819 73.3503 48.3368C73.8566 48.0917 74.469 47.9692 75.1957 47.9692C75.8081 47.9692 76.396 48.0754 76.9594 48.2878C77.5147 48.5002 78.021 48.7943 78.4619 49.1783C78.5272 49.2436 78.568 49.3008 78.568 49.3662C78.568 49.4315 78.5354 49.4887 78.4946 49.554L77.5392 50.6324C77.4739 50.7059 77.4167 50.7386 77.3432 50.7386C77.2779 50.7386 77.2207 50.7059 77.1554 50.6651C76.8941 50.469 76.6002 50.2974 76.2654 50.1586C75.9306 50.0197 75.604 49.9625 75.2855 49.9625C74.9181 49.9625 74.6241 50.0279 74.4281 50.1504C74.2158 50.2729 74.1179 50.4608 74.1179 50.6896C74.1179 50.8775 74.1832 51.0245 74.3057 51.1634C74.4281 51.2859 74.5833 51.3921 74.7793 51.482C74.9752 51.5719 75.2855 51.6781 75.6856 51.8006C75.702 51.8006 75.7591 51.8169 75.8571 51.866C76.5022 52.0784 77.0411 52.3153 77.4657 52.5604C77.8903 52.8054 78.2169 53.1159 78.4619 53.4835C78.7069 53.8511 78.813 54.3004 78.813 54.8233C78.813 55.4196 78.6579 55.9425 78.3639 56.3918C78.0699 56.8411 77.6535 57.1924 77.1391 57.4374C76.6002 57.6825 76.0041 57.8051 75.2937 57.8051C74.5016 57.7724 73.8157 57.6335 73.1788 57.3557Z" fill="white"/>
<path id="path44" d="M85.0188 57.6008H83.3776C83.1898 57.6008 83.1 57.511 83.1 57.3231V50.1504H80.732C80.5442 50.1504 80.4543 50.0605 80.4543 49.8727V48.3695C80.4543 48.1816 80.5442 48.0917 80.732 48.0917H87.6563C87.8441 48.0917 87.9339 48.1816 87.9339 48.3695V49.8727C87.9339 50.0605 87.8441 50.1504 87.6563 50.1504H85.2801V57.3231C85.2965 57.5273 85.2066 57.6008 85.0188 57.6008Z" fill="white"/>
<path id="path46" d="M94.2622 54.1452L93.1843 51.1062L93.0782 50.7223L92.9884 51.1062L91.9105 54.1452H94.2622ZM97.61 57.4211C97.61 57.4865 97.5937 57.5273 97.5447 57.56C97.4957 57.5927 97.4549 57.609 97.3732 57.609H95.683C95.5278 57.609 95.4217 57.5355 95.3727 57.3803L94.8664 55.9833H91.2573L90.7674 57.3803C90.7184 57.5355 90.6122 57.609 90.4571 57.609H88.7668C88.6933 57.609 88.6443 57.5927 88.5954 57.56C88.5464 57.5273 88.53 57.4865 88.53 57.4211C88.53 57.3884 88.53 57.3476 88.5464 57.3149L92.033 48.345C92.0983 48.2061 92.1882 48.1326 92.3433 48.1326H93.8049C93.9601 48.1326 94.0662 48.2061 94.1234 48.345L97.5774 57.3149C97.61 57.3394 97.61 57.3721 97.61 57.4211Z" fill="white"/>
<path id="path48" d="M102.975 57.6008H101.317C101.129 57.6008 101.04 57.511 101.04 57.3231V53.9001L97.9203 48.4349C97.8877 48.3695 97.8713 48.3287 97.8713 48.2796C97.8713 48.2143 97.8877 48.1898 97.9367 48.1571C97.9857 48.1244 98.0265 48.1081 98.1081 48.1081H100.06C100.215 48.1081 100.321 48.1734 100.378 48.3041L102.158 51.8496L103.889 48.3041C103.955 48.1653 104.061 48.1081 104.208 48.1081H106.159C106.233 48.1081 106.282 48.1244 106.331 48.1571C106.38 48.1898 106.396 48.2306 106.396 48.2796C106.396 48.3287 106.38 48.3695 106.347 48.4349L103.244 53.892V57.3312C103.252 57.5273 103.154 57.6008 102.975 57.6008Z" fill="white"/>
<g id="g50">
<g id="Group">
<path id="Vector" d="M107.474 48.2143C107.474 48.198 107.482 48.1898 107.49 48.1734C107.498 48.1653 107.515 48.1571 107.531 48.1571H108.789C108.805 48.1571 108.813 48.1653 108.829 48.1734C108.838 48.1816 108.846 48.198 108.846 48.2143V48.5084C108.846 48.5247 108.838 48.5329 108.829 48.5492C108.821 48.5656 108.805 48.5656 108.789 48.5656H108.388V49.8482C108.388 49.8645 108.38 49.8727 108.372 49.889C108.364 49.9053 108.348 49.9053 108.331 49.9053H107.988C107.972 49.9053 107.964 49.8972 107.947 49.889C107.939 49.8808 107.931 49.8645 107.931 49.8482V48.5656H107.531C107.515 48.5656 107.498 48.5574 107.49 48.5492C107.482 48.5411 107.474 48.5247 107.474 48.5084V48.2143Z" fill="white"/>
</g>
<g id="Group_2">
<g id="Group_3">
<path id="Vector_2" d="M109.115 48.2143C109.115 48.198 109.123 48.1898 109.131 48.1816C109.14 48.1734 109.156 48.1653 109.172 48.1653H109.581C109.613 48.1653 109.63 48.1816 109.638 48.2061L109.956 49.2681L110.275 48.2061C110.283 48.1734 110.307 48.1653 110.332 48.1653H110.732C110.748 48.1653 110.756 48.1734 110.773 48.1816C110.781 48.1898 110.789 48.2061 110.789 48.2143C110.814 48.492 110.846 48.7616 110.871 49.0312C110.903 49.3008 110.928 49.5704 110.952 49.8482V49.8563C110.952 49.889 110.936 49.9053 110.903 49.9053H110.569C110.536 49.9053 110.511 49.889 110.511 49.8563L110.413 48.9495L110.152 49.8563C110.152 49.8645 110.144 49.8727 110.136 49.8808C110.128 49.889 110.119 49.8972 110.103 49.8972H109.793C109.785 49.8972 109.776 49.889 109.76 49.8808C109.752 49.8727 109.744 49.8645 109.744 49.8482L109.483 48.9414L109.385 49.84C109.385 49.8727 109.368 49.889 109.327 49.889H108.993C108.96 49.889 108.944 49.8727 108.944 49.84L109.115 48.2143Z" fill="white"/>
</g>
</g>
</g>
</g>
</g>
</svg>
