<svg width="292" height="136" viewBox="0 0 292 136" fill="none" xmlns="http://www.w3.org/2000/svg">
<g clip-path="url(#clip0_7518_10126)">
<rect width="292" height="136" fill="url(#paint0_linear_7518_10126)"/>
<path d="M-33.9063 0.0937256V270.023M-18.9102 0.0937256V270.023M-3.91409 0.0937256V270.023M11.082 0.0937256V270.023M26.0781 0.0937256V270.023M41.0742 0.0937256V270.023M56.0703 0.0937256V270.023M71.0664 0.0937256V270.023M86.0625 0.0937256V270.023M101.059 0.0937256V270.023M116.055 0.0937256V270.023M131.051 0.0937256V270.023M146.047 0.0937256V270.023M161.043 0.0937256V270.023M176.039 0.0937256V270.023M191.035 0.0937256V270.023M206.031 0.0937256V270.023M221.027 0.0937256V270.023M236.023 0.0937256V270.023M251.019 0.0937256V270.023M266.016 0.0937256V270.023M281.012 0.0937256V270.023M296.008 0.0937256V270.023M311.004 0.0937256V270.023M326 0.0937256V270.023M-34 0H325.906M-34 14.9961H325.906M-34 29.9922H325.906M-34 44.9883H325.906M-34 59.9844H325.906M-34 74.9805H325.906M-34 89.9766H325.906M-34 104.973H325.906M-34 119.969H325.906M-34 134.965H325.906M-34 149.961H325.906M-34 164.957H325.906M-34 179.953H325.906M-34 194.949H325.906M-34 209.945H325.906M-34 224.941H325.906M-34 239.938H325.906M-34 254.934H325.906M-34 269.93H325.906" stroke="url(#paint1_radial_7518_10126)" stroke-opacity="0.5" stroke-width="0.256911"/>
<path d="M91.569 41.221H195.981V77.7052H91.569V41.221ZM89.7399 79.5514H197.843V39.391H89.7399V79.5514Z" fill="white"/>
<path d="M118.67 49.8886V69.013L120.173 69.2091V70.3282H112.758V69.2091L114.359 69.013V60.3045H104.862V69.013L106.324 69.2091V70.3282H99.0322V69.2091L100.494 69.013V49.8886L99.0322 49.6925V48.5979H106.324V49.6925L104.862 49.8886V58.0579H114.351V49.8886L112.75 49.6925V48.5979H120.164V49.6925L118.67 49.8886Z" fill="white"/>
<path d="M128.787 69.1519L130.183 69.3479V70.3282H123.365V69.3479L124.762 69.1519V56.0483L123.365 55.8522V54.8719H128.787V69.1519Z" fill="white"/>
<path d="M133.148 69.3806L134.511 69.1927V49.7579L133.148 49.5618V48.606H138.569V69.1927L139.966 69.3806V70.3446H133.148V69.3806Z" fill="white"/>
<path d="M148.262 54.8638H151.92V56.3097H148.262V65.5084C148.262 67.8856 148.752 68.6454 150.916 68.6454C151.716 68.6454 152.418 68.6454 153.079 68.4738V69.5359C151.112 70.2302 149.454 70.5162 148.058 70.5162C144.922 70.5162 144.204 69.1029 144.204 66.3988V56.3097H141.346V54.8638H144.31V51.6369L148.27 50.4523V54.8638" fill="white"/>
<path d="M170.26 62.7471C170.26 67.567 167.002 70.7939 161.874 70.7939C156.917 70.7939 153.749 68.6862 153.749 62.7471C153.749 57.772 157.007 54.4389 162.135 54.4389C167.206 54.4308 170.26 57.4452 170.26 62.7471ZM165.809 62.6491C165.809 57.7639 164.348 55.6316 161.988 55.6316C159.685 55.6316 158.224 57.674 158.224 62.6491C158.224 67.567 159.685 69.6094 161.988 69.6094C164.446 69.6094 165.809 67.6569 165.809 62.6491Z" fill="white"/>
<path d="M188.779 69.3479V70.3282H181.961V69.3479L183.324 69.1519V60.3453C183.324 57.9027 182.418 56.808 180.564 56.808C179.707 56.808 178.335 57.4044 177.339 58.0988V69.1437L178.735 69.3398V70.3201H171.885V69.3398L173.281 69.1437V56.1463L171.885 55.9503V54.8556H177.339V57.0041C179.029 55.6561 180.671 54.5615 182.957 54.5615C186.011 54.5615 187.383 56.3424 187.383 59.847V69.16L188.779 69.3479Z" fill="white"/>
<path d="M128.991 50.7791C128.991 51.98 128.011 52.9603 126.795 52.9603C125.578 52.9603 124.598 51.9963 124.598 50.7791C124.598 49.5782 125.578 48.5979 126.795 48.5979C128.011 48.5979 128.991 49.5782 128.991 50.7791Z" fill="white"/>
<path d="M200.57 40.5756H200.888C201.101 40.5756 201.182 40.5103 201.182 40.3632C201.182 40.2162 201.109 40.1508 200.888 40.1508H200.57V40.5756ZM201.468 40.3469C201.468 40.5593 201.378 40.6818 201.19 40.7472L201.525 41.2373H201.215L200.905 40.788H200.57V41.2373H200.309V39.9139H200.888C201.297 39.9139 201.468 40.0528 201.468 40.3469ZM199.778 40.5919C199.778 41.1883 200.268 41.6948 200.88 41.6948C201.476 41.6948 201.982 41.2046 201.982 40.5919C201.982 39.9956 201.493 39.4891 200.88 39.4891C200.268 39.4891 199.778 39.9793 199.778 40.5919ZM202.26 40.5919C202.26 41.3599 201.631 41.9889 200.864 41.9889C200.096 41.9889 199.467 41.3599 199.467 40.5919C199.467 39.824 200.096 39.195 200.864 39.195C201.648 39.195 202.26 39.8077 202.26 40.5919Z" fill="white"/>
<path d="M93.6839 96.6008H92.0426C91.8548 96.6008 91.765 96.5109 91.765 96.323V87.3858C91.765 87.1979 91.8548 87.108 92.0426 87.108H97.9707C98.1585 87.108 98.2483 87.1979 98.2483 87.3858V88.8317C98.2483 89.0196 98.1585 89.1095 97.9707 89.1095H93.9615V91.3969H96.9827C97.1705 91.3969 97.2603 91.4868 97.2603 91.6747V93.0144C97.2603 93.2023 97.1705 93.2922 96.9827 93.2922H93.9615V96.3802C93.9615 96.5272 93.8717 96.6008 93.6839 96.6008Z" fill="white"/>
<path d="M106.095 94.3134C106.512 94.0683 106.83 93.7334 107.075 93.3004C107.32 92.8674 107.443 92.3936 107.443 91.8708C107.443 91.3479 107.32 90.8741 107.075 90.4411C106.83 90.0082 106.495 89.6732 106.079 89.4281C105.663 89.1831 105.222 89.0605 104.74 89.0605C104.266 89.0605 103.801 89.1831 103.401 89.4281C102.984 89.6732 102.666 90.0082 102.421 90.4411C102.176 90.8741 102.053 91.3479 102.053 91.8708C102.053 92.3936 102.176 92.8674 102.421 93.3004C102.666 93.7334 103.001 94.0683 103.417 94.3134C103.834 94.5585 104.274 94.681 104.756 94.681C105.23 94.681 105.679 94.5585 106.095 94.3134ZM102.258 96.127C101.506 95.6777 100.91 95.0976 100.478 94.3461C100.045 93.5945 99.8324 92.7612 99.8324 91.8544C99.8324 90.9476 100.045 90.1307 100.478 89.3791C100.91 88.6275 101.506 88.0394 102.258 87.5982C103.009 87.1652 103.842 86.9528 104.764 86.9528C105.671 86.9528 106.495 87.1652 107.255 87.5982C108.006 88.0312 108.602 88.6275 109.035 89.3791C109.468 90.1307 109.68 90.964 109.68 91.8544C109.68 92.7612 109.468 93.5782 109.035 94.3461C108.602 95.0976 108.006 95.694 107.255 96.127C106.504 96.5763 105.671 96.7887 104.764 96.7887C103.834 96.7724 103.009 96.56 102.258 96.127Z" fill="white"/>
<path d="M116.384 91.4541C116.58 91.3316 116.735 91.1763 116.841 90.9803C116.947 90.7842 117.013 90.5636 117.013 90.3186C117.013 90.0572 116.947 89.8284 116.841 89.6242C116.735 89.4363 116.58 89.2892 116.384 89.1912C116.196 89.1013 115.984 89.0523 115.739 89.0523H114.081V91.6175H115.706C115.951 91.6257 116.18 91.5766 116.384 91.4541ZM111.901 96.3394V87.4021C111.901 87.2142 111.991 87.1244 112.179 87.1244H115.927C116.572 87.1244 117.151 87.2632 117.649 87.5247C118.156 87.8024 118.54 88.17 118.817 88.6439C119.095 89.1177 119.234 89.6732 119.234 90.3022C119.234 90.9149 119.111 91.4378 118.85 91.8707C118.589 92.3037 118.237 92.655 117.756 92.9328L119.413 96.2822C119.446 96.3475 119.462 96.3884 119.462 96.421C119.462 96.4864 119.446 96.5109 119.397 96.5436C119.348 96.5763 119.291 96.5926 119.225 96.5926H117.339C117.184 96.5926 117.078 96.5272 117.021 96.3965L115.673 93.4964H114.089V96.323C114.089 96.5109 114 96.6008 113.812 96.6008H112.17C111.974 96.6008 111.901 96.5272 111.901 96.3394Z" fill="white"/>
<path d="M130.461 96.6008H128.82C128.632 96.6008 128.542 96.5109 128.542 96.323V89.1504H126.174C125.986 89.1504 125.897 89.0605 125.897 88.8726V87.3694C125.897 87.1815 125.986 87.0917 126.174 87.0917H133.099C133.286 87.0917 133.376 87.1815 133.376 87.3694V88.8726C133.376 89.0605 133.286 89.1504 133.099 89.1504H130.722V96.323C130.739 96.5273 130.649 96.6008 130.461 96.6008Z" fill="white"/>
<path d="M137.835 96.6008H136.193C136.005 96.6008 135.916 96.5109 135.916 96.323V87.3858C135.916 87.1979 136.005 87.108 136.193 87.108H137.835C138.022 87.108 138.112 87.1979 138.112 87.3858V90.6127H141.966V87.3858C141.966 87.1979 142.056 87.108 142.244 87.108H143.901C144.089 87.108 144.179 87.1979 144.179 87.3858V96.323C144.179 96.5109 144.089 96.6008 143.901 96.6008H142.244C142.056 96.6008 141.966 96.5109 141.966 96.323V92.6958H138.112V96.323C138.096 96.5273 138.014 96.6008 137.835 96.6008Z" fill="white"/>
<path d="M154.108 96.6008H147.707C147.519 96.6008 147.429 96.5109 147.429 96.323V87.3858C147.429 87.1979 147.519 87.108 147.707 87.108H154.018C154.206 87.108 154.296 87.1979 154.296 87.3858V88.8481C154.296 89.036 154.206 89.1258 154.018 89.1258H149.625V90.8251H153.006C153.194 90.8251 153.284 90.9149 153.284 91.1028V92.4426C153.284 92.6305 153.194 92.7203 153.006 92.7203H149.625V94.6401H154.108C154.296 94.6401 154.386 94.73 154.386 94.9179V96.3802C154.37 96.5272 154.28 96.6008 154.108 96.6008Z" fill="white"/>
<path d="M162.919 96.3557C162.29 96.078 161.735 95.6777 161.261 95.1548C161.196 95.0895 161.188 95.0323 161.188 94.9669C161.188 94.9016 161.22 94.8281 161.294 94.7709L162.339 93.7742C162.404 93.7089 162.462 93.6843 162.527 93.6843C162.6 93.6843 162.666 93.717 162.723 93.7906C163.033 94.101 163.368 94.3461 163.752 94.5013C164.135 94.6565 164.536 94.7464 164.936 94.7464C165.368 94.7464 165.703 94.6728 165.932 94.5013C166.161 94.3461 166.283 94.1173 166.283 93.8396C166.283 93.6517 166.234 93.4883 166.128 93.3657C166.022 93.2269 165.834 93.1043 165.573 92.9981C165.311 92.8756 164.944 92.753 164.47 92.6142C163.686 92.3854 163.009 92.0423 162.429 91.5848C161.857 91.1274 161.572 90.4901 161.572 89.665C161.572 89.1749 161.694 88.7256 161.955 88.3171C162.2 87.9005 162.584 87.5819 163.09 87.3368C163.597 87.0917 164.209 86.9692 164.936 86.9692C165.548 86.9692 166.136 87.0754 166.699 87.2878C167.255 87.5002 167.761 87.7943 168.202 88.1782C168.267 88.2436 168.308 88.3008 168.308 88.3661C168.308 88.4315 168.275 88.4887 168.235 88.554L167.279 89.6324C167.214 89.7059 167.157 89.7386 167.083 89.7386C167.018 89.7386 166.961 89.7059 166.895 89.665C166.634 89.469 166.34 89.2974 166.005 89.1585C165.671 89.0197 165.344 88.9625 165.026 88.9625C164.658 88.9625 164.364 89.0278 164.168 89.1504C163.956 89.2729 163.858 89.4608 163.858 89.6895C163.858 89.8774 163.923 90.0245 164.046 90.1634C164.168 90.2859 164.323 90.3921 164.519 90.482C164.715 90.5718 165.026 90.678 165.426 90.8006C165.442 90.8006 165.499 90.8169 165.597 90.8659C166.242 91.0783 166.781 91.3152 167.206 91.5603C167.63 91.8054 167.957 92.1158 168.202 92.4835C168.447 92.8511 168.553 93.3004 168.553 93.8232C168.553 94.4196 168.398 94.9424 168.104 95.3917C167.81 95.841 167.394 96.1923 166.879 96.4374C166.34 96.6825 165.744 96.805 165.034 96.805C164.242 96.7723 163.556 96.6335 162.919 96.3557Z" fill="white"/>
<path d="M174.759 96.6008H173.118C172.93 96.6008 172.84 96.5109 172.84 96.323V89.1504H170.472C170.284 89.1504 170.194 89.0605 170.194 88.8726V87.3694C170.194 87.1815 170.284 87.0917 170.472 87.0917H177.396C177.584 87.0917 177.674 87.1815 177.674 87.3694V88.8726C177.674 89.0605 177.584 89.1504 177.396 89.1504H175.02V96.323C175.036 96.5273 174.947 96.6008 174.759 96.6008Z" fill="white"/>
<path d="M184.002 93.1452L182.924 90.1062L182.818 89.7222L182.728 90.1062L181.65 93.1452H184.002ZM187.35 96.4211C187.35 96.4864 187.334 96.5273 187.285 96.56C187.236 96.5926 187.195 96.609 187.113 96.609H185.423C185.268 96.609 185.162 96.5355 185.113 96.3802L184.606 94.9833H180.997L180.507 96.3802C180.458 96.5355 180.352 96.609 180.197 96.609H178.507C178.433 96.609 178.384 96.5926 178.335 96.56C178.286 96.5273 178.27 96.4864 178.27 96.4211C178.27 96.3884 178.27 96.3476 178.286 96.3149L181.773 87.345C181.838 87.2061 181.928 87.1326 182.083 87.1326H183.545C183.7 87.1326 183.806 87.2061 183.863 87.345L187.317 96.3149C187.35 96.3394 187.35 96.3721 187.35 96.4211Z" fill="white"/>
<path d="M192.715 96.6008H191.057C190.869 96.6008 190.779 96.5109 190.779 96.323V92.9001L187.66 87.4348C187.628 87.3694 187.611 87.3286 187.611 87.2796C187.611 87.2142 187.628 87.1897 187.677 87.157C187.726 87.1244 187.766 87.108 187.848 87.108H189.8C189.955 87.108 190.061 87.1734 190.118 87.3041L191.898 90.8496L193.629 87.3041C193.694 87.1652 193.801 87.108 193.948 87.108H195.899C195.973 87.108 196.022 87.1244 196.071 87.157C196.12 87.1897 196.136 87.2306 196.136 87.2796C196.136 87.3286 196.12 87.3694 196.087 87.4348L192.984 92.8919V96.3312C192.992 96.5273 192.894 96.6008 192.715 96.6008Z" fill="white"/>
<path d="M197.214 87.2143C197.214 87.1979 197.222 87.1898 197.23 87.1734C197.238 87.1652 197.255 87.1571 197.271 87.1571H198.528C198.545 87.1571 198.553 87.1652 198.569 87.1734C198.577 87.1816 198.586 87.1979 198.586 87.2143V87.5084C198.586 87.5247 198.577 87.5329 198.569 87.5492C198.561 87.5655 198.545 87.5655 198.528 87.5655H198.128V88.8481C198.128 88.8645 198.12 88.8726 198.112 88.889C198.104 88.9053 198.088 88.9053 198.071 88.9053H197.728C197.712 88.9053 197.704 88.8971 197.687 88.889C197.679 88.8808 197.671 88.8645 197.671 88.8481V87.5655H197.271C197.255 87.5655 197.238 87.5574 197.23 87.5492C197.222 87.541 197.214 87.5247 197.214 87.5084V87.2143Z" fill="white"/>
<path d="M198.855 87.2143C198.855 87.1979 198.863 87.1897 198.871 87.1816C198.88 87.1734 198.896 87.1652 198.912 87.1652H199.321C199.353 87.1652 199.369 87.1816 199.378 87.2061L199.696 88.2681L200.015 87.2061C200.023 87.1734 200.047 87.1652 200.072 87.1652H200.472C200.488 87.1652 200.496 87.1734 200.513 87.1816C200.521 87.1897 200.529 87.2061 200.529 87.2143C200.553 87.492 200.586 87.7616 200.611 88.0312C200.643 88.3008 200.668 88.5704 200.692 88.8481V88.8563C200.692 88.889 200.676 88.9053 200.643 88.9053H200.309C200.276 88.9053 200.251 88.889 200.251 88.8563L200.153 87.9495L199.892 88.8563C199.892 88.8645 199.884 88.8726 199.876 88.8808C199.868 88.889 199.859 88.8971 199.843 88.8971H199.533C199.525 88.8971 199.516 88.889 199.5 88.8808C199.492 88.8726 199.484 88.8645 199.484 88.8481L199.223 87.9413L199.125 88.8399C199.125 88.8726 199.108 88.889 199.067 88.889H198.733C198.7 88.889 198.684 88.8726 198.684 88.8399L198.855 87.2143Z" fill="white"/>
</g>
<defs>
<linearGradient id="paint0_linear_7518_10126" x1="146" y1="0" x2="146" y2="136" gradientUnits="userSpaceOnUse">
<stop stop-color="#442083"/>
<stop offset="1" stop-color="#581F73" stop-opacity="0"/>
</linearGradient>
<radialGradient id="paint1_radial_7518_10126" cx="0" cy="0" r="1" gradientUnits="userSpaceOnUse" gradientTransform="translate(154.023 3.35314e-06) rotate(90) scale(150.449 168.411)">
<stop stop-color="#D0D5DD"/>
<stop offset="1" stop-color="#D0D5DD" stop-opacity="0"/>
</radialGradient>
<clipPath id="clip0_7518_10126">
<rect width="292" height="136" fill="white"/>
</clipPath>
</defs>
</svg>
