<svg width="32" height="32" viewBox="0 0 32 32" fill="none" xmlns="http://www.w3.org/2000/svg">
<path d="M9.15594 21.5453L4.66885 29.3169H7.80415L9.18371 26.927H22.9991L30 14.8025L26.1101 8.06318H12.1118L8.22197 14.8025L9.0055 16.1601H10.5714L10.6177 16.0791C11.6385 14.3118 12.6581 12.5445 13.6778 10.7772H24.5361L26.8624 14.806L21.4321 24.2118H10.7508L12.2912 21.5453H19.8881L23.7792 14.8071L22.9945 13.4495H14.8675L13.3005 16.1624H19.8615L18.3211 18.8301H7.46273L5.13759 14.8013L10.5679 5.39663H24.5708L23.0049 2.68262H9.00203L2 14.8071L5.88987 21.5453H9.1571H9.15594Z" fill="#A795D0"/>
</svg>
