<svg width="24" height="24" viewBox="0 0 24 24" fill="none" xmlns="http://www.w3.org/2000/svg">
<path d="M13.8949 4.21009C13.5482 2.93647 12.3835 2 11 2C9.34315 2 8 3.34315 8 5C8 6.65685 9.34315 8 11 8C11.3902 8 11.7631 7.92549 12.1051 7.78991M13.8949 4.21009C14.2369 4.07451 14.6098 4 15 4C16.6569 4 18 5.34315 18 7C18 8.65685 16.6569 10 15 10C13.6165 10 12.4518 9.06353 12.1051 7.78991M13.8949 4.21009C12.4917 4.76637 11.7115 6.344 12.1051 7.78991M7 20H9C9 20 11.3916 20.9234 13 21C16.5463 21.1689 19.3633 19.5191 21.645 17.0098C22.1661 16.4367 22.1573 15.5716 21.6735 14.9668C21.0497 14.1871 19.8774 14.124 19.0953 14.7447C18.2335 15.4286 17.0898 16.1979 16 16.5C14.4947 16.9173 13 17 13 17C21 16.5 18 9.99985 7 14.5001M5 21C3.89543 21 3 20.1046 3 19V15C3 13.8954 3.89543 13 5 13C6.10457 13 7 13.8954 7 15V19C7 20.1046 6.10457 21 5 21Z" stroke="#DBD2EF" stroke-width="2" stroke-linejoin="round"/>
</svg>
