<svg width="25" height="24" viewBox="0 0 25 24" fill="none" xmlns="http://www.w3.org/2000/svg">
<path fill-rule="evenodd" clip-rule="evenodd" d="M2.33325 7C2.33325 5.34315 3.6764 4 5.33325 4H19.3333C20.9901 4 22.3333 5.34315 22.3333 7V9.17071C22.3333 9.59452 22.0661 9.97231 21.6665 10.1135C20.8884 10.3886 20.3333 11.1307 20.3333 12C20.3333 12.8693 20.8884 13.6114 21.6665 13.8865C22.0661 14.0277 22.3333 14.4055 22.3333 14.8293V17C22.3333 18.6569 20.9901 20 19.3333 20H5.33325C3.6764 20 2.33325 18.6569 2.33325 17V14.8293C2.33325 14.4055 2.60041 14.0277 3.00001 13.8865C3.77815 13.6114 4.33325 12.8693 4.33325 12C4.33325 11.1307 3.77815 10.3886 3.00001 10.1135C2.60041 9.97231 2.33325 9.59452 2.33325 9.17071V7ZM5.33325 6C4.78097 6 4.33325 6.44772 4.33325 7V8.53543C5.52805 9.22657 6.33325 10.5183 6.33325 12C6.33325 13.4817 5.52805 14.7734 4.33325 15.4646V17C4.33325 17.5523 4.78097 18 5.33325 18H19.3333C19.8855 18 20.3333 17.5523 20.3333 17V15.4646C19.1385 14.7734 18.3333 13.4817 18.3333 12C18.3333 10.5183 19.1385 9.22657 20.3333 8.53543V7C20.3333 6.44771 19.8855 6 19.3333 6H5.33325Z" fill="#DBD2EF"/>
<path d="M14.3333 8C14.3333 7.44772 14.781 7 15.3333 7C15.8855 7 16.3333 7.44772 16.3333 8C16.3333 8.55228 15.8855 9 15.3333 9C14.781 9 14.3333 8.55228 14.3333 8Z" fill="#DBD2EF"/>
<path d="M14.3333 12C14.3333 11.4477 14.781 11 15.3333 11C15.8855 11 16.3333 11.4477 16.3333 12C16.3333 12.5523 15.8855 13 15.3333 13C14.781 13 14.3333 12.5523 14.3333 12Z" fill="#DBD2EF"/>
<path d="M14.3333 16C14.3333 15.4477 14.781 15 15.3333 15C15.8855 15 16.3333 15.4477 16.3333 16C16.3333 16.5523 15.8855 17 15.3333 17C14.781 17 14.3333 16.5523 14.3333 16Z" fill="#DBD2EF"/>
</svg>
