<svg width="64" height="64" viewBox="0 0 64 64" fill="none" xmlns="http://www.w3.org/2000/svg">
<g id="Frame 44">
<g clip-path="url(#clip0_7518_16185)">
<g id="Group 1">
<path id="Vector" d="M45.3334 46.4889C46.2223 44.0889 46.9334 41.4222 47.289 38.6667C47.7334 35.1111 47.6445 31.5556 46.6667 28.1778C46.5779 27.8222 46.4001 27.3778 46.2223 26.9333C46.0445 26.5778 45.9556 26.2222 45.7779 25.8667C45.3334 24.8 44.7112 23.9111 44.089 23.2C43.0223 21.9556 41.8667 20.8 40.6223 19.7333C39.3779 18.6667 38.1334 17.6889 36.8001 16.7111C37.1556 17.2445 37.6001 17.7778 37.8667 18.3111C37.8667 18.3111 41.1556 20.7111 43.0223 23.2C40.6223 21.4222 39.2001 20.8 39.0223 20.6222C39.9112 22.9333 40.2667 24.8 40.2667 24.8C40.2667 24.8 43.2001 26.3111 45.7779 28.5333C46.1334 30.2222 46.3112 31.9111 46.2223 33.6C43.5556 31.2889 40.5334 29.5111 40.5334 29.5111C40.4445 31.4667 40.1779 33.4222 39.7334 35.3778C39.7334 35.3778 42.5779 37.1556 45.4223 39.7334C45.4223 39.7334 44.6223 43.3778 43.289 46.2222C40.6223 43.7334 37.9556 41.7778 37.7779 41.6C37.7779 41.6 36.4445 45.0667 34.3112 48.5334C36.9779 50.8445 39.5556 53.3334 39.5556 53.3334C39.2001 53.9556 38.7556 54.4889 38.4001 55.1111C37.1556 56.8889 35.8223 58.5778 34.4001 60.1778L29.6001 55.3778C27.6445 57.7778 25.5112 60.0889 23.2001 62.1334C23.289 62.2223 24.2667 63.2889 24.7112 63.7334H34.5779C36.889 61.1556 38.9334 58.4 40.8001 55.4667C42.5779 52.8 44.1779 49.6889 45.3334 46.4889Z" fill="white"/>
<path id="Vector_2" d="M54.4 50.0445C54.4 48.1779 54.3112 46.3112 54.0445 44.4445C53.8667 47.1112 53.4223 49.4223 53.4223 49.4223C53.5112 49.7779 53.6889 50.3112 53.7778 50.6667C53.5112 53.4223 52.9778 56.089 52.2667 58.6667C51.9112 57.3334 51.4667 56.1779 51.3778 56.089C50.7556 57.689 50.0445 59.3779 49.2445 61.0667C48.8 62.0445 48.2667 63.0223 47.8223 63.9112H52C52.5334 62.489 52.9778 60.9779 53.3334 59.4667C53.9556 56.4445 54.4 53.2445 54.4 50.0445Z" fill="white"/>
<path id="Vector_3" d="M0.0889282 6.10352e-05V10.6667C2.40004 9.86673 4.71115 9.24451 7.02226 8.80006C8.17782 8.62229 9.42227 8.44451 10.5778 8.35562C11.7334 8.26673 12.9778 8.17784 14.2223 8.17784C23.5556 8.17784 32.2667 11.289 39.2001 16.5334C40.2667 17.3334 41.3334 18.2223 42.3112 19.1112C43.8223 20.4445 45.1556 21.9556 46.4889 23.4667C52.4445 30.7556 56.0889 40.0001 56.0889 50.1334C56.0889 53.0667 55.8223 56.0001 55.2001 58.8445C54.8445 60.5334 54.4001 62.2223 53.7778 63.9112H64.0001V6.10352e-05H0.0889282Z" fill="white"/>
<path id="Vector_4" d="M4.17784 41.0667C14.3112 32.1778 18.489 20.3555 13.4223 14.5778C11.1112 11.9111 7.28895 11.0222 2.84451 11.6444C2.75562 11.6444 2.57784 11.6444 2.48895 11.7333C2.13339 11.8222 1.77784 11.8222 1.42228 11.9111C0.711172 12.0889 0.266728 12.2666 6.10352e-05 12.3555V13.6889C0.444506 13.3333 0.88895 12.9778 1.33339 12.7111C2.22228 12.5333 3.11117 12.4444 3.91117 12.3555C2.66673 13.0666 1.15562 14.0444 6.10352e-05 15.0222V16C6.10352e-05 16 3.28895 13.4222 5.86673 12.2666C6.48895 12.3555 7.11117 12.3555 7.64451 12.5333C3.7334 14.1333 0.88895 16.1778 0.711172 16.3555C1.06673 16.6222 1.51117 16.8889 1.51117 16.8889C1.60006 16.8889 5.3334 14.4889 9.42229 13.0666C9.95562 13.3333 10.489 13.6 11.0223 14.0444C6.48895 15.2889 2.22228 17.6 2.22228 17.6C2.48895 17.8666 2.66673 18.2222 2.84451 18.4889H2.9334C7.28895 16.6222 11.8223 15.6444 12.3556 15.5555H12.4445C12.8001 16.0889 13.1556 16.6222 13.4223 17.3333C13.4223 17.3333 9.06673 17.8666 3.37784 19.6444C3.64451 20.4444 3.7334 20.9778 3.7334 20.9778C3.7334 20.9778 4.44451 20.8 5.68895 20.6222C6.04451 20.5333 6.57784 20.4444 7.02229 20.3555C8.97784 20 11.5556 19.7333 13.9556 19.6444C13.9556 20 14.0445 20.4444 13.9556 20.8889C13.9556 21.3333 13.8667 21.7778 13.8667 22.2222C10.9334 22.0444 4.00006 22.4 3.7334 22.4889C3.7334 22.4889 3.7334 23.4666 3.46673 24.4444C3.46673 24.4444 8.5334 24.6222 13.1556 25.4222C12.8001 26.4889 12.3556 27.6444 11.8223 28.7111C8.80006 27.8222 4.08895 26.6666 2.84451 26.4C2.48895 27.2 2.13339 28 1.60006 28.7111C1.60006 28.7111 1.68895 28.7111 1.86673 28.8C3.02228 29.3333 7.55562 31.2889 9.51118 32.3555C8.80006 33.4222 7.55562 34.8444 7.02229 35.4667C6.84451 35.6444 6.75562 35.8222 6.75562 35.8222C6.22228 35.3778 5.68895 35.0222 5.24451 34.6667C3.64451 33.6 0.0889499 31.1111 0.0889499 31.1111V35.8222L3.02228 39.2889C2.04451 40.0889 1.06673 40.8 0.0889499 41.4222V44.2667L0.177839 44.1778C1.51117 43.2 2.84451 42.2222 4.17784 41.0667Z" fill="white"/>
<path id="Vector_5" d="M0.80004 18.0444C0.622262 17.8667 0.355595 17.6889 0.0889282 17.5111V28C2.66671 24.3556 3.02226 20.0889 0.80004 18.0444Z" fill="white"/>
<path id="Vector_6" d="M11.2 52.2668C11.6445 51.9112 12.0889 51.5557 12.6223 51.1112C14.0445 49.9557 15.4667 48.6223 16.8889 47.1112C18.0445 45.9557 19.1112 44.8001 20.0889 43.5557C21.0667 42.3112 21.9556 41.1557 22.7556 39.9112C28.9778 30.7557 30.5778 21.2445 26.0445 15.0223C21.2445 8.53342 13.6889 9.42231 11.3778 9.77787C8.88893 10.1334 7.02226 10.6668 7.02226 10.6668C7.5556 10.7556 8.3556 10.8445 8.88893 10.9334C9.33338 10.8445 12.8 10.0445 15.2889 10.4001C14.6667 10.489 14.0445 10.5779 13.4223 10.7556C13.1556 10.8445 12.8889 10.8445 12.7112 10.9334C12.6223 10.9334 12.4445 11.0223 12.3556 11.0223C11.4667 11.289 10.7556 11.4668 10.6667 11.4668C10.7556 11.4668 11.4667 11.7334 12.4445 12.2668C12.5334 12.2668 12.6223 12.1779 12.8889 12.1779C13.9556 11.9112 16.7112 11.289 19.3778 11.289C19.3778 11.289 20.6223 11.8223 21.7778 12.6223C17.5112 12.6223 14.0445 13.4223 13.9556 13.4223C14.4889 13.8668 14.9334 14.4001 15.3778 15.0223C20 14.3112 24 14.6668 24 14.6668C24 14.6668 24.5334 15.289 24.8 15.6445C25.0667 16.089 25.4223 16.6223 25.6889 17.1556C20.9778 16.6223 16.4445 16.9779 16.4445 16.9779C16.7112 17.7779 16.8889 18.6668 16.9778 19.5556C17.5112 19.5556 21.5112 19.5556 26.6667 20.4445C26.8445 21.6001 26.8445 22.8445 26.7556 24.1779C25.8667 23.9112 21.6889 22.9334 17.1556 22.489C17.0667 23.6445 16.8889 24.8001 16.5334 26.0445C17.0667 26.1334 22.6667 27.5557 25.8667 28.8001C25.7778 28.9779 25.7778 29.1556 25.6889 29.4223C25.2445 30.7556 24.7112 32.1779 24 33.5112C21.4223 32.2668 15.2 29.7779 15.2 29.7779C14.5778 31.2001 13.7778 32.6223 12.8889 34.0445C12.8889 34.0445 18.2223 37.0668 20.8 38.8445C19.6445 40.5334 18.2223 42.2223 16.8 43.8223C14.9334 42.1334 10.2223 38.489 9.86671 38.2223C8.3556 40.0001 6.48893 41.9557 5.86671 42.489L11.4667 48.9779C11.3778 49.0668 11.3778 49.0668 11.2889 49.1557C10.0445 50.1334 8.80004 51.1112 7.64449 51.9112C7.37782 52.089 7.20004 52.2668 6.93338 52.3557C6.31115 52.8001 5.77782 53.0668 5.60004 53.2445C5.51115 52.9779 1.86671 47.1112 1.33337 46.1334C0.888929 46.4001 0.533373 46.7557 0.0889282 47.0223V59.1112C0.711151 58.7557 1.42226 58.489 2.04448 58.1334C5.24449 56.5334 8.26671 54.5779 11.2 52.2668Z" fill="white"/>
<path id="Vector_7" d="M35.8223 17.2445C35.4667 16.8 35.2001 16.3556 34.7556 16C34.4001 15.6445 34.0445 15.3778 33.689 15.1112C29.689 12.0889 22.3112 10.5778 22.3112 10.5778C23.0223 10.9334 23.5556 11.3778 23.6445 11.3778C23.6445 11.3778 25.3334 11.8223 27.289 12.5334C27.9112 12.8 28.6223 13.0667 29.2445 13.4223C29.2445 13.4223 26.8445 12.8889 25.3334 12.6223C25.9556 13.1556 26.5778 13.8667 27.1112 14.4889C27.1112 14.4889 32.0001 15.3778 34.1334 16.5334C34.1334 16.5334 35.2001 17.6 36.0001 19.4667C32.6223 18.1334 28.889 17.4223 28.889 17.4223C29.4223 18.5778 29.7778 19.7334 29.9556 20.9778C29.9556 20.9778 34.1334 21.9556 37.2445 23.4667C37.5112 24.9778 37.6001 26.4889 37.6001 28.0889C33.8667 26.2223 30.2223 25.0667 30.2223 25.0667C30.1334 26.6667 29.8667 28.3556 29.4223 30.0445C29.4223 30.0445 29.5112 30.0445 29.6001 30.1334C30.5778 30.5778 34.7556 32.4445 36.7112 33.6889C36.1778 35.7334 35.4667 37.6889 34.6667 39.5556C31.2001 37.3334 27.5556 35.2889 27.5556 35.2889C26.6667 37.5112 24.3556 41.1556 24.3556 41.1556C24.4445 41.1556 28.1778 43.8223 31.0223 46.0445C29.6001 48.1778 28.0001 50.3112 26.2223 52.2667C25.6001 51.6445 20.089 46.7556 20.089 46.7556C18.4001 48.7112 16.5334 50.5778 14.489 52.4445L19.8223 58.4889C16.3556 61.3334 12.889 63.5556 12.889 63.5556L8.44451 57.2445C8.44451 57.2445 5.3334 59.6445 6.10352e-05 62.1334V64.0001H17.4223C36.889 49.2445 43.8223 28.1778 35.8223 17.2445Z" fill="white"/>
<path id="Vector_8" d="M52.7112 41.9556C52.6223 39.2 52.0889 36.6223 51.2889 34.5778C51.2889 34.5778 49.8667 30.9334 47.6445 27.6445C47.9112 28.3556 48.3556 29.8667 48.6223 31.2C48.6223 31.2889 48.6223 31.3778 48.6223 31.4667C49.0667 32.1778 51.0223 35.6445 51.2889 39.4667C51.2889 39.4667 49.8667 37.5111 48.8889 36.2667C48.8889 38.4 48.6223 40.4445 48.1778 42.4889C48.1778 42.4889 50.2223 44.8889 51.1112 46.4C51.1112 46.4 50.4889 49.7778 49.1556 52.9778C47.8223 51.0223 46.0445 49.0667 46.0445 49.0667C45.0667 51.5556 43.7334 54.1334 42.3112 56.4445C42.3112 56.4445 44.8889 59.4667 45.5112 60.3556C44.7112 61.6 44 62.7556 43.2 63.9112H45.6C52.4445 53.7778 52.8 44.8889 52.8 43.1111C52.7112 42.7556 52.7112 42.4 52.7112 41.9556Z" fill="white"/>
<path id="Vector_9" d="M39.2889 16.5334C40.3556 17.3334 41.4223 18.2223 42.4001 19.1112C41.3334 18.2223 40.3556 17.3334 39.2889 16.5334Z" fill="white"/>
<path id="Vector_10" d="M56.089 50.1334C56.089 40 52.5335 30.6667 46.489 23.4667C52.4446 30.7556 56.089 40 56.089 50.1334Z" fill="white"/>
<path id="Vector_11" d="M7.11115 8.80004C8.2667 8.62226 9.51115 8.44448 10.6667 8.35559C9.42226 8.44448 8.2667 8.62226 7.11115 8.80004Z" fill="white"/>
<path id="Vector_12" d="M13.9556 19.7333C11.4667 19.8222 8.97783 20.0889 7.02228 20.4444C8.97783 20.0889 11.5556 19.7333 13.9556 19.7333Z" fill="white"/>
<path id="Vector_13" d="M5.68896 20.6223C6.04452 20.5334 6.57785 20.4445 7.0223 20.3556C6.57785 20.4445 6.13341 20.5334 5.68896 20.6223Z" fill="white"/>
<path id="Vector_14" d="M36.7111 33.689C34.7555 32.5334 30.5778 30.5779 29.6 30.1334C30.6666 30.6668 34.7555 32.5334 36.7111 33.689Z" fill="white"/>
<path id="Vector_15" d="M16.9778 19.5556C16.8889 18.6667 16.6223 17.7778 16.3556 16.9778C16.7111 17.7778 16.8889 18.6667 16.9778 19.5556Z" fill="white"/>
<path id="Vector_16" d="M51.3778 56.0889C50.7556 57.6889 50.0445 59.3778 49.2445 61.0667C49.9556 59.3778 50.7556 57.6889 51.3778 56.0889Z" fill="white"/>
<path id="Vector_17" d="M40.8 55.7334C42.6667 52.8 44.1778 49.6889 45.3334 46.4889C44.1778 49.6889 42.5778 52.8 40.8 55.7334Z" fill="white"/>
<path id="Vector_18" d="M19.3779 11.2001C16.7112 11.289 13.9556 11.8223 12.889 12.089C13.9556 11.9112 16.7112 11.289 19.3779 11.2001Z" fill="white"/>
<path id="Vector_19" d="M12.7112 10.9333C12.9778 10.8444 13.1556 10.8444 13.4223 10.7556C13.1556 10.7556 12.889 10.8444 12.7112 10.9333Z" fill="white"/>
<path id="Vector_20" d="M12.3556 11.0223C11.4667 11.2889 10.7556 11.4667 10.6667 11.4667C10.7556 11.4667 11.4667 11.2001 12.3556 11.0223Z" fill="white"/>
</g>
</g>
</g>
<defs>
<clipPath id="clip0_7518_16185">
<rect width="64" height="64" rx="5.33333" fill="white"/>
</clipPath>
</defs>
</svg>
