<svg width="292" height="136" viewBox="0 0 292 136" fill="none" xmlns="http://www.w3.org/2000/svg">
<g clip-path="url(#clip0_7518_10920)">
<rect width="292" height="136" fill="url(#paint0_linear_7518_10920)"/>
<path d="M-33.9063 0.0937256V270.023M-18.9102 0.0937256V270.023M-3.91407 0.0937256V270.023M11.082 0.0937256V270.023M26.0781 0.0937256V270.023M41.0742 0.0937256V270.023M56.0703 0.0937256V270.023M71.0664 0.0937256V270.023M86.0625 0.0937256V270.023M101.059 0.0937256V270.023M116.055 0.0937256V270.023M131.051 0.0937256V270.023M146.047 0.0937256V270.023M161.043 0.0937256V270.023M176.039 0.0937256V270.023M191.035 0.0937256V270.023M206.031 0.0937256V270.023M221.027 0.0937256V270.023M236.023 0.0937256V270.023M251.02 0.0937256V270.023M266.016 0.0937256V270.023M281.012 0.0937256V270.023M296.008 0.0937256V270.023M311.004 0.0937256V270.023M326 0.0937256V270.023M-34 0H325.906M-34 14.9961H325.906M-34 29.9922H325.906M-34 44.9883H325.906M-34 59.9844H325.906M-34 74.9805H325.906M-34 89.9766H325.906M-34 104.973H325.906M-34 119.969H325.906M-34 134.965H325.906M-34 149.961H325.906M-34 164.957H325.906M-34 179.953H325.906M-34 194.949H325.906M-34 209.945H325.906M-34 224.941H325.906M-34 239.938H325.906M-34 254.934H325.906M-34 269.93H325.906" stroke="url(#paint1_radial_7518_10920)" stroke-opacity="0.5" stroke-width="0.256911"/>
<path d="M84.3125 78.1875C84.9375 76.5 85.4375 74.625 85.6875 72.6875C86 70.1875 85.9375 67.6875 85.25 65.3125C85.1875 65.0625 85.0625 64.75 84.9375 64.4375C84.8125 64.1875 84.75 63.9375 84.625 63.6875C84.3125 62.9375 83.875 62.3125 83.4375 61.8125C82.6875 60.9375 81.875 60.125 81 59.375C80.125 58.625 79.25 57.9375 78.3125 57.25C78.5625 57.625 78.875 58 79.0625 58.375C79.0625 58.375 81.375 60.0625 82.6875 61.8125C81 60.5625 80 60.125 79.875 60C80.5 61.625 80.75 62.9375 80.75 62.9375C80.75 62.9375 82.8125 64 84.625 65.5625C84.875 66.75 85 67.9375 84.9375 69.125C83.0625 67.5 80.9375 66.25 80.9375 66.25C80.875 67.625 80.6875 69 80.375 70.375C80.375 70.375 82.375 71.625 84.375 73.4375C84.375 73.4375 83.8125 76 82.875 78C81 76.25 79.125 74.875 79 74.75C79 74.75 78.0625 77.1875 76.5625 79.625C78.4375 81.25 80.25 83 80.25 83C80 83.4375 79.6875 83.8125 79.4375 84.25C78.5625 85.5 77.625 86.6875 76.625 87.8125L73.25 84.4375C71.875 86.125 70.375 87.75 68.75 89.1875C68.8125 89.25 69.5 90 69.8125 90.3125H76.75C78.375 88.5 79.8125 86.5625 81.125 84.5C82.375 82.625 83.5 80.4375 84.3125 78.1875Z" fill="white"/>
<path d="M90.6875 80.6875C90.6875 79.375 90.625 78.0625 90.4375 76.75C90.3125 78.625 90 80.25 90 80.25C90.0625 80.5 90.1875 80.875 90.25 81.125C90.0625 83.0625 89.6875 84.9375 89.1875 86.75C88.9375 85.8125 88.625 85 88.5625 84.9375C88.125 86.0625 87.625 87.25 87.0625 88.4375C86.75 89.125 86.375 89.8125 86.0625 90.4375H89C89.375 89.4375 89.6875 88.375 89.9375 87.3125C90.375 85.1875 90.6875 82.9375 90.6875 80.6875Z" fill="white"/>
<path d="M52.5 45.5V53C54.125 52.4375 55.75 52 57.375 51.6875C58.1875 51.5625 59.0625 51.4375 59.875 51.375C60.6875 51.3125 61.5625 51.25 62.4375 51.25C69 51.25 75.125 53.4375 80 57.125C80.75 57.6875 81.5 58.3125 82.1875 58.9375C83.25 59.875 84.1875 60.9375 85.125 62C89.3125 67.125 91.875 73.625 91.875 80.75C91.875 82.8125 91.6875 84.875 91.25 86.875C91 88.0625 90.6875 89.25 90.25 90.4375H97.4375V45.5H52.5Z" fill="white"/>
<path d="M55.375 74.375C62.5 68.125 65.4375 59.8125 61.875 55.75C60.25 53.875 57.5625 53.25 54.4375 53.6875C54.375 53.6875 54.25 53.6875 54.1875 53.75C53.9375 53.8125 53.6875 53.8125 53.4375 53.875C52.9375 54 52.625 54.125 52.4375 54.1875V55.125C52.75 54.875 53.0625 54.625 53.375 54.4375C54 54.3125 54.625 54.25 55.1875 54.1875C54.3125 54.6875 53.25 55.375 52.4375 56.0625V56.75C52.4375 56.75 54.75 54.9375 56.5625 54.125C57 54.1875 57.4375 54.1875 57.8125 54.3125C55.0625 55.4375 53.0625 56.875 52.9375 57C53.1875 57.1875 53.5 57.375 53.5 57.375C53.5625 57.375 56.1875 55.6875 59.0625 54.6875C59.4375 54.875 59.8125 55.0625 60.1875 55.375C57 56.25 54 57.875 54 57.875C54.1875 58.0625 54.3125 58.3125 54.4375 58.5H54.5C57.5625 57.1875 60.75 56.5 61.125 56.4375H61.1875C61.4375 56.8125 61.6875 57.1875 61.875 57.6875C61.875 57.6875 58.8125 58.0625 54.8125 59.3125C55 59.875 55.0625 60.25 55.0625 60.25C55.0625 60.25 55.5625 60.125 56.4375 60C56.6875 59.9375 57.0625 59.875 57.375 59.8125C58.75 59.5625 60.5625 59.375 62.25 59.3125C62.25 59.5625 62.3125 59.875 62.25 60.1875C62.25 60.5 62.1875 60.8125 62.1875 61.125C60.125 61 55.25 61.25 55.0625 61.3125C55.0625 61.3125 55.0625 62 54.875 62.6875C54.875 62.6875 58.4375 62.8125 61.6875 63.375C61.4375 64.125 61.125 64.9375 60.75 65.6875C58.625 65.0625 55.3125 64.25 54.4375 64.0625C54.1875 64.625 53.9375 65.1875 53.5625 65.6875C53.5625 65.6875 53.625 65.6875 53.75 65.75C54.5625 66.125 57.75 67.5 59.125 68.25C58.625 69 57.75 70 57.375 70.4375C57.25 70.5625 57.1875 70.6875 57.1875 70.6875C56.8125 70.375 56.4375 70.125 56.125 69.875C55 69.125 52.5 67.375 52.5 67.375V70.6875L54.5625 73.125C53.875 73.6875 53.1875 74.1875 52.5 74.625V76.625L52.5625 76.5625C53.5 75.875 54.4375 75.1875 55.375 74.375Z" fill="white"/>
<path d="M53 58.1875C52.875 58.0625 52.6875 57.9375 52.5 57.8125V65.1875C54.3125 62.625 54.5625 59.625 53 58.1875Z" fill="white"/>
<path d="M60.3125 82.25C60.625 82 60.9375 81.75 61.3125 81.4375C62.3125 80.625 63.3125 79.6875 64.3125 78.625C65.125 77.8125 65.875 77 66.5625 76.125C67.25 75.25 67.875 74.4375 68.4375 73.5625C72.8125 67.125 73.9375 60.4375 70.75 56.0625C67.375 51.5 62.0625 52.125 60.4375 52.375C58.6875 52.625 57.375 53 57.375 53C57.75 53.0625 58.3125 53.125 58.6875 53.1875C59 53.125 61.4375 52.5625 63.1875 52.8125C62.75 52.875 62.3125 52.9375 61.875 53.0625C61.6875 53.125 61.5 53.125 61.375 53.1875C61.3125 53.1875 61.1875 53.25 61.125 53.25C60.5 53.4375 60 53.5625 59.9375 53.5625C60 53.5625 60.5 53.75 61.1875 54.125C61.25 54.125 61.3125 54.0625 61.5 54.0625C62.25 53.875 64.1875 53.4375 66.0625 53.4375C66.0625 53.4375 66.9375 53.8125 67.75 54.375C64.75 54.375 62.3125 54.9375 62.25 54.9375C62.625 55.25 62.9375 55.625 63.25 56.0625C66.5 55.5625 69.3125 55.8125 69.3125 55.8125C69.3125 55.8125 69.6875 56.25 69.875 56.5C70.0625 56.8125 70.3125 57.1875 70.5 57.5625C67.1875 57.1875 64 57.4375 64 57.4375C64.1875 58 64.3125 58.625 64.375 59.25C64.75 59.25 67.5625 59.25 71.1875 59.875C71.3125 60.6875 71.3125 61.5625 71.25 62.5C70.625 62.3125 67.6875 61.625 64.5 61.3125C64.4375 62.125 64.3125 62.9375 64.0625 63.8125C64.4375 63.875 68.375 64.875 70.625 65.75C70.5625 65.875 70.5625 66 70.5 66.1875C70.1875 67.125 69.8125 68.125 69.3125 69.0625C67.5 68.1875 63.125 66.4375 63.125 66.4375C62.6875 67.4375 62.125 68.4375 61.5 69.4375C61.5 69.4375 65.25 71.5625 67.0625 72.8125C66.25 74 65.25 75.1875 64.25 76.3125C62.9375 75.125 59.625 72.5625 59.375 72.375C58.3125 73.625 57 75 56.5625 75.375L60.5 79.9375C60.4375 80 60.4375 80 60.375 80.0625C59.5 80.75 58.625 81.4375 57.8125 82C57.625 82.125 57.5 82.25 57.3125 82.3125C56.875 82.625 56.5 82.8125 56.375 82.9375C56.3125 82.75 53.75 78.625 53.375 77.9375C53.0625 78.125 52.8125 78.375 52.5 78.5625V87.0625C52.9375 86.8125 53.4375 86.625 53.875 86.375C56.125 85.25 58.25 83.875 60.3125 82.25Z" fill="white"/>
<path d="M77.625 57.625C77.375 57.3125 77.1875 57 76.875 56.75C76.625 56.5 76.375 56.3125 76.125 56.125C73.3125 54 68.125 52.9375 68.125 52.9375C68.625 53.1875 69 53.5 69.0625 53.5C69.0625 53.5 70.25 53.8125 71.625 54.3125C72.0625 54.5 72.5625 54.6875 73 54.9375C73 54.9375 71.3125 54.5625 70.25 54.375C70.6875 54.75 71.125 55.25 71.5 55.6875C71.5 55.6875 74.9375 56.3125 76.4375 57.125C76.4375 57.125 77.1875 57.875 77.75 59.1875C75.375 58.25 72.75 57.75 72.75 57.75C73.125 58.5625 73.375 59.375 73.5 60.25C73.5 60.25 76.4375 60.9375 78.625 62C78.8125 63.0625 78.875 64.125 78.875 65.25C76.25 63.9375 73.6875 63.125 73.6875 63.125C73.625 64.25 73.4375 65.4375 73.125 66.625C73.125 66.625 73.1875 66.625 73.25 66.6875C73.9375 67 76.875 68.3125 78.25 69.1875C77.875 70.625 77.375 72 76.8125 73.3125C74.375 71.75 71.8125 70.3125 71.8125 70.3125C71.1875 71.875 69.5625 74.4375 69.5625 74.4375C69.625 74.4375 72.25 76.3125 74.25 77.875C73.25 79.375 72.125 80.875 70.875 82.25C70.4375 81.8125 66.5625 78.375 66.5625 78.375C65.375 79.75 64.0625 81.0625 62.625 82.375L66.375 86.625C63.9375 88.625 61.5 90.1875 61.5 90.1875L58.375 85.75C58.375 85.75 56.1875 87.4375 52.4375 89.1875V90.5H64.6875C78.375 80.125 83.25 65.3125 77.625 57.625Z" fill="white"/>
<path d="M89.5 75C89.4375 73.0625 89.0625 71.25 88.5 69.8125C88.5 69.8125 87.5 67.25 85.9375 64.9375C86.125 65.4375 86.4375 66.5 86.625 67.4375C86.625 67.5 86.625 67.5625 86.625 67.625C86.9375 68.125 88.3125 70.5625 88.5 73.25C88.5 73.25 87.5 71.875 86.8125 71C86.8125 72.5 86.625 73.9375 86.3125 75.375C86.3125 75.375 87.75 77.0625 88.375 78.125C88.375 78.125 87.9375 80.5 87 82.75C86.0625 81.375 84.8125 80 84.8125 80C84.125 81.75 83.1875 83.5625 82.1875 85.1875C82.1875 85.1875 84 87.3125 84.4375 87.9375C83.875 88.8125 83.375 89.625 82.8125 90.4375H84.5C89.3125 83.3125 89.5625 77.0625 89.5625 75.8125C89.5 75.5625 89.5 75.3125 89.5 75Z" fill="white"/>
<path d="M80.0625 57.125C80.8125 57.6875 81.5625 58.3125 82.25 58.9375C81.5 58.3125 80.8125 57.6875 80.0625 57.125Z" fill="white"/>
<path d="M91.875 80.75C91.875 73.625 89.375 67.0625 85.125 62C89.3125 67.125 91.875 73.625 91.875 80.75Z" fill="white"/>
<path d="M57.4375 51.6875C58.25 51.5625 59.125 51.4375 59.9375 51.375C59.0625 51.4375 58.25 51.5625 57.4375 51.6875Z" fill="white"/>
<path d="M62.25 59.375C60.5 59.4375 58.75 59.625 57.375 59.875C58.75 59.625 60.5625 59.375 62.25 59.375Z" fill="white"/>
<path d="M56.4375 60C56.6875 59.9375 57.0625 59.875 57.375 59.8125C57.0625 59.875 56.75 59.9375 56.4375 60Z" fill="white"/>
<path d="M78.25 69.1875C76.875 68.375 73.9375 67 73.25 66.6875C74 67.0625 76.875 68.375 78.25 69.1875Z" fill="white"/>
<path d="M64.375 59.25C64.3125 58.625 64.125 58 63.9375 57.4375C64.1875 58 64.3125 58.625 64.375 59.25Z" fill="white"/>
<path d="M88.5625 84.9375C88.125 86.0625 87.625 87.25 87.0625 88.4375C87.5625 87.25 88.125 86.0625 88.5625 84.9375Z" fill="white"/>
<path d="M81.125 84.6875C82.4375 82.625 83.5 80.4375 84.3125 78.1875C83.5 80.4375 82.375 82.625 81.125 84.6875Z" fill="white"/>
<path d="M66.0625 53.375C64.1875 53.4375 62.25 53.8125 61.5 54C62.25 53.875 64.1875 53.4375 66.0625 53.375Z" fill="white"/>
<path d="M61.375 53.1875C61.5625 53.125 61.6875 53.125 61.875 53.0625C61.6875 53.0625 61.5 53.125 61.375 53.1875Z" fill="white"/>
<path d="M61.125 53.25C60.5 53.4375 60 53.5625 59.9375 53.5625C60 53.5625 60.5 53.375 61.125 53.25Z" fill="white"/>
<path d="M126.25 68.3125V61.125H130.438V68.0625C130.438 70.75 131.688 71.875 134.125 71.875C136.563 71.875 137.813 70.75 137.813 68.0625V61.125H142V68.3125C142 73.3125 139.5 75.5 134.125 75.5C128.75 75.5 126.25 73.3125 126.25 68.3125ZM160.75 69.3125L153 61.125H148.875V75.1875H152.75V66.25L161.188 75.125H164.563V61.125H160.688V69.3125H160.75ZM171.875 75.1875H176.063V61.125H171.875V75.1875ZM223.438 61.125H231.438C237 61.125 239.563 63.5625 239.563 68.125C239.563 72.6875 237 75.125 231.438 75.125H223.438V61.125ZM227.625 71.375H231.313C234 71.375 235.25 70.375 235.25 68.125C235.25 65.875 234 64.875 231.313 64.875H227.625V71.375ZM207.5 69.625H216.125V66.625H207.5V64.5625H216.813V61.125H203.313V75.1875H216.875V71.75H207.5V69.625ZM182.188 64.875H187.563V75.125H191.75V64.875H197.125V61.125H182.125L182.188 64.875Z" fill="white"/>
</g>
<defs>
<linearGradient id="paint0_linear_7518_10920" x1="146" y1="0" x2="146" y2="136" gradientUnits="userSpaceOnUse">
<stop stop-color="#442083"/>
<stop offset="1" stop-color="#581F73" stop-opacity="0"/>
</linearGradient>
<radialGradient id="paint1_radial_7518_10920" cx="0" cy="0" r="1" gradientUnits="userSpaceOnUse" gradientTransform="translate(154.023 3.35314e-06) rotate(90) scale(150.449 168.411)">
<stop stop-color="#D0D5DD"/>
<stop offset="1" stop-color="#D0D5DD" stop-opacity="0"/>
</radialGradient>
<clipPath id="clip0_7518_10920">
<rect width="292" height="136" fill="white"/>
</clipPath>
</defs>
</svg>
