<svg width="25" height="24" viewBox="0 0 25 24" fill="none" xmlns="http://www.w3.org/2000/svg">
<g id="users-02">
<path id="Icon" d="M16.667 3.46776C18.1487 4.20411 19.167 5.73314 19.167 7.5C19.167 9.26686 18.1487 10.7959 16.667 11.5322M18.667 16.7664C20.1784 17.4503 21.5395 18.565 22.667 20M2.66699 20C4.61348 17.5226 7.25617 16 10.167 16C13.0778 16 15.7205 17.5226 17.667 20M14.667 7.5C14.667 9.98528 12.6523 12 10.167 12C7.68171 12 5.66699 9.98528 5.66699 7.5C5.66699 5.01472 7.68171 3 10.167 3C12.6523 3 14.667 5.01472 14.667 7.5Z" stroke="#C3B5FD" stroke-width="2" stroke-linecap="round" stroke-linejoin="round"/>
</g>
</svg>
