<svg width="25" height="24" viewBox="0 0 25 24" fill="none" xmlns="http://www.w3.org/2000/svg">
<g id="wallet-03">
<path id="Icon" d="M16.833 14H16.843M3.33301 5V19C3.33301 20.1046 4.22844 21 5.33301 21H19.333C20.4376 21 21.333 20.1046 21.333 19V9C21.333 7.89543 20.4376 7 19.333 7L5.33301 7C4.22844 7 3.33301 6.10457 3.33301 5ZM3.33301 5C3.33301 3.89543 4.22844 3 5.33301 3H17.333M17.333 14C17.333 14.2761 17.1092 14.5 16.833 14.5C16.5569 14.5 16.333 14.2761 16.333 14C16.333 13.7239 16.5569 13.5 16.833 13.5C17.1092 13.5 17.333 13.7239 17.333 14Z" stroke="#C3B5FD" stroke-width="2" stroke-linecap="round" stroke-linejoin="round"/>
</g>
</svg>
